<svg width="23" height="21" viewBox="0 0 23 21" fill="none" xmlns="http://www.w3.org/2000/svg">
<path d="M21.0239 2.64272H3.94031L1.82825 0.631218C1.63851 0.45032 1.33717 0.457063 1.15488 0.647726C0.973515 0.838158 0.980955 1.1395 1.17162 1.32086L2.55957 2.64272H1.97613C0.925616 2.64272 0.0713501 3.54 0.0713501 4.64283V5.97608V8.83324V16.8332C0.0713501 17.936 0.925616 18.8333 1.97613 18.8333H19.5597L21.1718 20.3686C21.2639 20.4565 21.382 20.5 21.5001 20.5C21.6256 20.5 21.7512 20.4505 21.8451 20.3521C22.0265 20.1617 22.0191 19.8603 21.8284 19.679L20.9404 18.8333H21.0239C22.0744 18.8333 22.9287 17.936 22.9287 16.8332V8.83324V5.97608V4.64283C22.9287 3.54 22.0744 2.64272 21.0239 2.64272ZM21.0239 3.59511C21.5489 3.59511 21.9763 4.06502 21.9763 4.64283V5.49988H6.94036L4.94034 3.59511H21.0239ZM21.9763 8.35705H9.94038L7.94035 6.45227H21.9763V8.35705ZM1.02374 6.45227H6.55961L8.5596 8.35705H1.02374V6.45227ZM1.97613 3.59511H3.55957L5.55959 5.49988H1.02374V4.64283C1.02374 4.06502 1.4511 3.59511 1.97613 3.59511ZM1.97613 17.8809C1.4511 17.8809 1.02374 17.411 1.02374 16.8332V9.30944H9.55963L18.5597 17.8809H1.97613ZM17.2143 14.5476C17.2143 14.0223 17.6417 13.5952 18.1667 13.5952C18.6918 13.5952 19.1191 14.0223 19.1191 14.5476C19.1191 15.0728 18.6918 15.5 18.1667 15.5C17.6417 15.5 17.2143 15.0728 17.2143 14.5476ZM21.0239 17.8809H19.9405L18.4142 16.4273C19.3469 16.3046 20.0715 15.5131 20.0715 14.5476C20.0715 13.4973 19.2172 12.6428 18.1667 12.6428C17.1693 12.6428 16.358 13.4157 16.2776 14.3925L10.9404 9.30944H21.9763V16.8332C21.9763 17.411 21.5489 17.8809 21.0239 17.8809Z" fill="white"/>
<path d="M2.45224 14.0714H5.3094C5.57261 14.0714 5.7856 13.8582 5.7856 13.5952C5.7856 13.3322 5.57261 13.119 5.3094 13.119H2.45224C2.18903 13.119 1.97604 13.3322 1.97604 13.5952C1.97604 13.8582 2.18903 14.0714 2.45224 14.0714Z" fill="white"/>
<path d="M6.26179 15.0238H2.45224C2.18903 15.0238 1.97604 15.237 1.97604 15.5C1.97604 15.763 2.18903 15.9762 2.45224 15.9762H6.26179C6.525 15.9762 6.73799 15.763 6.73799 15.5C6.73799 15.237 6.525 15.0238 6.26179 15.0238Z" fill="white"/>
</svg>
