<svg width="19" height="21" viewBox="0 0 19 21" fill="none" xmlns="http://www.w3.org/2000/svg">
<path d="M17.2169 0.5H9.62401C8.81473 0.5 8.15633 1.1584 8.15633 1.96769V4.95793H3.46651C2.98093 4.95793 2.58589 5.35297 2.58589 5.83855V8.52785C2.58589 8.68996 2.71734 8.8214 2.87944 8.8214C3.04155 8.8214 3.17299 8.68996 3.17299 8.52785V5.83855C3.17299 5.67668 3.30467 5.545 3.46655 5.545H13.5233C13.6852 5.545 13.8169 5.67668 13.8169 5.83855V14.7279C13.8169 14.89 13.9483 15.0214 14.1104 15.0214C14.2725 15.0214 14.404 14.89 14.404 14.7279V5.83859C14.404 5.35301 14.0089 4.95797 13.5233 4.95797H8.7434V1.96773C8.7434 1.48215 9.13843 1.08711 9.62401 1.08711H10.7069L10.833 1.51879C10.9662 1.97488 11.391 2.2934 11.8661 2.2934H14.9747C15.4498 2.2934 15.8747 1.97484 16.0079 1.51875L16.1339 1.08711H17.2169C17.7024 1.08711 18.0975 1.48215 18.0975 1.96773V6.77984C18.0975 6.94195 18.2289 7.0734 18.391 7.0734C18.5531 7.0734 18.6846 6.94199 18.6846 6.77984V1.96769C18.6846 1.1584 18.0262 0.5 17.2169 0.5ZM15.4444 1.35418C15.3838 1.56148 15.1907 1.70629 14.9747 1.70629H11.8661C11.6502 1.70629 11.457 1.56148 11.3965 1.35418L11.3185 1.08707H15.5223L15.4444 1.35418Z" fill="white"/>
<path d="M18.3906 7.66046C18.2285 7.66046 18.0971 7.79191 18.0971 7.95402V19.0323C18.0971 19.5179 17.702 19.913 17.2165 19.913H13.8983C14.2111 19.5801 14.4034 19.1327 14.4034 18.6409V15.9021C14.4034 15.74 14.272 15.6085 14.1099 15.6085C13.9477 15.6085 13.8163 15.74 13.8163 15.9021V18.6409C13.8163 19.3423 13.2457 19.913 12.5443 19.913C11.8429 19.913 11.2723 19.3423 11.2723 18.6409V17.5901C11.2723 17.428 11.1408 17.2965 10.9787 17.2965H3.17256V9.70206C3.17256 9.53995 3.04116 9.40851 2.87901 9.40851C2.71686 9.40851 2.58546 9.53995 2.58546 9.70206V17.2965H0.608958C0.446851 17.2965 0.315407 17.428 0.315407 17.5901V18.6409C0.315407 19.666 1.14938 20.5 2.17449 20.5H17.2164C18.0257 20.5 18.6841 19.8416 18.6841 19.0323V7.95402C18.6841 7.79191 18.5527 7.66046 18.3906 7.66046ZM2.17453 19.913C1.47317 19.913 0.902509 19.3423 0.902509 18.6409V17.8836H10.6853V18.6409C10.6853 19.1325 10.8771 19.5801 11.1897 19.913H2.17453Z" fill="white"/>
<path d="M5.25307 10.4294C4.67437 10.4294 4.20355 10.9002 4.20355 11.4789C4.20355 12.0576 4.67437 12.5284 5.25307 12.5284C5.83178 12.5284 6.30255 12.0576 6.30255 11.4789C6.30255 11.2211 6.20892 10.9848 6.05408 10.8019L6.62212 9.99971C6.72071 10.0305 6.82547 10.0471 6.93403 10.0471C7.21223 10.0471 7.46531 9.93803 7.65332 9.76077L8.76147 10.4121C8.74061 10.4945 8.7294 10.5807 8.7294 10.6696C8.7294 11.2483 9.20021 11.719 9.77888 11.719C10.3576 11.719 10.8284 11.2482 10.8284 10.6696C10.8284 10.4161 10.7381 10.1833 10.5879 10.0018L11.3237 9.07671C11.4253 9.10956 11.5335 9.12749 11.6458 9.12749C12.2246 9.12749 12.6954 8.65667 12.6954 8.07799C12.6954 7.49928 12.2246 7.0285 11.6458 7.0285C11.0671 7.0285 10.5964 7.49932 10.5964 8.07799C10.5964 8.33147 10.6867 8.56421 10.8368 8.74577L10.1011 9.67085C9.9995 9.63799 9.8913 9.62006 9.77892 9.62006C9.50072 9.62006 9.24767 9.72909 9.05967 9.90635L7.95152 9.25506C7.97238 9.17264 7.98359 9.08639 7.98359 8.99756C7.98359 8.41885 7.51277 7.94807 6.93407 7.94807C6.35536 7.94807 5.88459 8.41889 5.88459 8.99756C5.88459 9.25542 5.97822 9.49171 6.13306 9.6746L5.56502 10.4768C5.46643 10.446 5.36162 10.4294 5.25307 10.4294ZM5.25307 11.9414C4.99807 11.9414 4.79062 11.7339 4.79062 11.4789C4.79062 11.2239 4.99807 11.0165 5.25307 11.0165C5.50803 11.0165 5.71549 11.2239 5.71549 11.4789C5.71549 11.7339 5.50803 11.9414 5.25307 11.9414ZM11.6458 7.61553C11.9008 7.61553 12.1083 7.823 12.1083 8.07796C12.1083 8.33292 11.9008 8.54038 11.6458 8.54038C11.3909 8.54038 11.1834 8.33292 11.1834 8.07796C11.1834 7.823 11.3909 7.61553 11.6458 7.61553ZM9.77892 10.2071C10.0339 10.2071 10.2414 10.4146 10.2414 10.6696C10.2414 10.9245 10.0339 11.132 9.77892 11.132C9.52396 11.132 9.3165 10.9245 9.3165 10.6696C9.3165 10.4146 9.52396 10.2071 9.77892 10.2071ZM6.93407 8.5351C7.18906 8.5351 7.39652 8.74257 7.39652 8.99753C7.39652 9.25253 7.18906 9.45999 6.93407 9.45999C6.67911 9.45999 6.47165 9.25253 6.47165 8.99753C6.47165 8.74257 6.67907 8.5351 6.93407 8.5351Z" fill="white"/>
<path d="M11.3063 13.4467H5.24562C5.08352 13.4467 4.95207 13.5781 4.95207 13.7402C4.95207 13.9023 5.08352 14.0338 5.24562 14.0338H11.3063C11.4684 14.0338 11.5998 13.9023 11.5998 13.7402C11.5998 13.5781 11.4684 13.4467 11.3063 13.4467Z" fill="white"/>
<path d="M11.3063 15.3716H5.24562C5.08352 15.3716 4.95207 15.503 4.95207 15.6651C4.95207 15.8272 5.08352 15.9587 5.24562 15.9587H11.3063C11.4684 15.9587 11.5998 15.8272 11.5998 15.6651C11.5998 15.503 11.4684 15.3716 11.3063 15.3716Z" fill="white"/>
</svg>
