<svg width="22" height="21" viewBox="0 0 22 21" fill="none" xmlns="http://www.w3.org/2000/svg">
<path d="M20.9863 17.9078C21.289 17.6459 21.4795 17.2546 21.4795 16.8226C21.4795 16.3735 21.2753 15.9755 20.9555 15.7102C20.9549 15.7097 20.9543 15.7094 20.9538 15.709C21.2671 15.4457 21.4706 15.0559 21.4706 14.6152C21.4706 13.8271 20.8276 13.184 20.0361 13.184H15.8614C15.0733 13.184 14.4269 13.8157 14.4269 14.6152C14.4269 14.9111 14.517 15.1861 14.6708 15.4147C14.6701 15.4146 14.6697 15.4143 14.669 15.4142C14.4713 15.3731 14.5398 15.3971 11.8048 15.3904V9.81143C12.2267 9.87946 12.6143 10.0802 12.9206 10.3897C13.0741 10.5293 13.289 10.5312 13.4443 10.3897C14.2507 9.5835 15.5603 9.5835 16.3631 10.3897C16.5403 10.5668 16.8843 10.5193 16.9789 10.2605C17.797 9.54545 19.0488 9.59193 19.8227 10.3659C20.0366 10.5875 20.4084 10.4225 20.401 10.1244C20.3636 5.8274 17.2234 1.72408 11.8048 1.25579V0.837333C11.8048 0.387251 11.1244 0.387861 11.1244 0.837333V1.25579C5.75857 1.71952 2.56567 5.78002 2.52466 10.1244C2.52466 10.4306 2.89974 10.5838 3.10636 10.3659C3.88533 9.5903 5.12709 9.5563 5.95032 10.2605C6.04575 10.5045 6.37924 10.5761 6.56613 10.3897C7.36876 9.5835 8.67858 9.5835 9.48459 10.3897C9.62764 10.5326 9.86242 10.5326 10.0051 10.3897C10.3147 10.0802 10.7025 9.87946 11.1244 9.81143V15.3904H10.2501C9.43696 15.3904 8.81456 16.0442 8.81456 16.8226C8.81456 17.2614 9.01199 17.656 9.32819 17.918C9.01384 18.1698 8.80426 18.5774 8.80426 19.027C8.80426 19.8265 9.4508 20.4728 10.2467 20.4728H14.4207C14.6724 20.4728 14.9106 20.4082 15.1147 20.2959C15.3325 20.4251 15.5875 20.5 15.863 20.5H20.0337C20.8468 20.5 21.5067 19.84 21.5067 19.0304C21.5067 18.5814 21.3058 18.18 20.9863 17.9078ZM11.1244 2.3614C11.257 2.08245 11.3763 1.94632 11.4646 1.94632C11.5565 1.94632 11.6756 2.08921 11.8048 2.36816C12.2333 3.27986 12.7709 5.66116 12.839 9.44061C12.8354 9.44061 12.8354 9.43719 12.8321 9.43719C11.9037 8.9407 10.9231 8.97318 10.0903 9.44061C10.1548 5.51147 10.7025 3.23223 11.1244 2.3614ZM19.6866 9.42021C18.844 8.94976 17.8008 8.96156 16.9857 9.43039C16.8293 6.41637 15.7849 3.86503 14.2711 2.44302C17.2034 3.51121 19.377 6.20203 19.6866 9.42021ZM3.24249 9.42021C3.55208 6.20203 5.72568 3.51121 8.65815 2.44302C7.14429 3.86503 6.10351 6.41299 5.94678 9.43039C5.11003 8.961 4.08261 8.95754 3.24249 9.42021ZM14.4207 19.7924H10.2467C9.82476 19.7924 9.48459 19.4489 9.48459 19.027C9.48459 18.6075 9.81847 18.2684 10.2467 18.2684H14.4207C14.4785 18.2684 14.5363 18.2752 14.5908 18.2888C14.4581 18.5099 14.3902 18.7651 14.3902 19.0304C14.3902 19.2991 14.465 19.5543 14.5944 19.7721C14.5398 19.7856 14.482 19.7924 14.4207 19.7924ZM20.7991 16.8226C20.7991 17.1824 20.5581 17.5609 20.0337 17.5609H15.863C15.3552 17.5609 15.0975 17.1908 15.0975 16.8226C15.0975 16.3869 15.4522 16.0606 15.8596 16.0606H20.0372C20.459 16.0606 20.7991 16.4042 20.7991 16.8226Z" fill="white"/>
<path d="M4.52104 11.213C2.30319 11.213 0.493408 13.0194 0.493408 15.2408C0.493408 17.4588 2.30319 19.2651 4.52104 19.2651C6.74259 19.2651 8.54545 17.4588 8.54545 15.2408C8.54545 13.0194 6.74259 11.213 4.52104 11.213ZM1.9561 15.6626C1.72487 15.6626 1.53435 15.4755 1.53435 15.2408C1.53435 15.0095 1.72487 14.8156 1.9561 14.8156C2.19763 14.8156 2.38493 15.0095 2.38493 15.2408C2.38493 15.4755 2.19763 15.6626 1.9561 15.6626ZM4.52104 14.9482C5.13347 14.9482 5.63343 15.4483 5.63343 16.0606C5.63343 16.5743 5.28312 17.0063 4.81036 17.1322V17.4112C4.81036 17.571 4.68115 17.7003 4.52104 17.7003C4.36125 17.7003 4.23204 17.571 4.23204 17.4112V17.1322C3.75574 17.0063 3.40865 16.5743 3.40865 16.0606C3.40865 15.9007 3.53803 15.7715 3.69797 15.7715C3.85792 15.7715 3.98713 15.9007 3.98713 16.0606C3.98713 16.3566 4.22512 16.5981 4.52104 16.5981C4.81374 16.5981 5.05527 16.3566 5.05527 16.0606C5.05527 15.7681 4.81374 15.5265 4.52104 15.5265C3.90539 15.5265 3.40865 15.0299 3.40865 14.4142C3.40865 13.9005 3.75574 13.4684 4.23204 13.3425V13.0636C4.23204 12.9037 4.36125 12.7745 4.52104 12.7745C4.68115 12.7745 4.81036 12.9037 4.81036 13.0636V13.3425C5.28312 13.4684 5.63343 13.9005 5.63343 14.4142C5.63343 14.5741 5.50421 14.7033 5.34427 14.7033C5.18448 14.7033 5.05527 14.5741 5.05527 14.4142C5.05527 14.1216 4.81374 13.88 4.52104 13.88C4.22512 13.88 3.98713 14.1216 3.98713 14.4142C3.98713 14.7101 4.22512 14.9482 4.52104 14.9482ZM7.50451 15.2408C7.50451 15.4755 7.31753 15.6626 7.07584 15.6626C6.84461 15.6626 6.65409 15.4755 6.65409 15.2408C6.65409 15.0095 6.84461 14.8156 7.07584 14.8156C7.31753 14.8156 7.50451 15.0095 7.50451 15.2408Z" fill="white"/>
</svg>
