<svg width="16" height="21" viewBox="0 0 16 21" fill="none" xmlns="http://www.w3.org/2000/svg">
<path d="M15.5576 3.732C10.9826 3.50159 8.31873 0.656837 8.2924 0.62818C8.21727 0.54647 8.11117 0.5 8.00041 0.5C7.90592 0.509681 7.78278 0.546083 7.70726 0.628568C7.68093 0.657611 5.03329 3.50081 0.442422 3.732C0.224012 3.74323 0.0555576 3.92873 0.0660133 4.14714L0.495088 13.1023C0.495863 13.117 0.497412 13.1318 0.499735 13.1461C0.532652 13.3525 1.38306 18.2237 7.86991 20.4779C7.91212 20.4926 7.95588 20.5 8.00003 20.5C8.04417 20.5 8.08793 20.4926 8.13014 20.4779C14.617 18.2237 15.4674 13.3525 15.5003 13.1461C15.5026 13.1318 15.5042 13.117 15.505 13.1023L15.934 4.14714C15.9445 3.92873 15.776 3.74323 15.5576 3.732ZM14.7138 13.04C14.6464 13.4114 13.7604 17.6231 8.00003 19.6829C2.2354 17.6216 1.35246 13.4055 1.28624 13.04L0.876918 4.49799C4.72078 4.18431 7.18641 2.20972 8.00003 1.45341C8.81364 2.20972 11.2793 4.18431 15.1231 4.49799L14.7138 13.04Z" fill="white"/>
<path d="M3.93274 7.75395C3.93274 8.67997 4.24736 9.53197 4.77058 10.2164C4.77588 10.2263 4.78464 10.234 4.79084 10.2435C5.53565 11.2014 6.69561 11.8213 8.00004 11.8213C9.30448 11.8213 10.4644 11.2014 11.2092 10.2435C11.2154 10.234 11.2242 10.2263 11.2295 10.2164C11.7527 9.53197 12.0673 8.67997 12.0673 7.75395C12.0673 5.51138 10.2426 3.68665 8.00004 3.68665C5.75747 3.68665 3.93274 5.51138 3.93274 7.75395ZM4.72583 7.75395C4.72583 7.15891 4.88792 6.60212 5.16652 6.12072C5.50445 6.44879 5.89908 6.70953 6.3283 6.90507C6.30519 7.18488 6.29226 7.46934 6.29226 7.75395C6.29226 8.03819 6.30514 8.32229 6.32821 8.60176C5.89657 8.79803 5.50135 9.0586 5.16592 9.38619C4.8877 8.90503 4.72583 8.34857 4.72583 7.75395ZM5.65093 10.0296C5.87991 9.79126 6.14174 9.58655 6.43363 9.4268C6.52459 9.94558 6.6581 10.4224 6.83601 10.8105C6.38487 10.6381 5.98123 10.3704 5.65093 10.0296ZM6.4339 6.07957C6.14412 5.92048 5.88221 5.7163 5.65122 5.478C5.98147 5.13729 6.38501 4.86977 6.83601 4.6974C6.65829 5.08516 6.52483 5.56138 6.4339 6.07957ZM8.00004 11.0282C7.7924 11.0282 7.37323 10.384 7.18326 9.12867C7.71324 8.99398 8.28731 8.9941 8.81685 9.12852C8.62691 10.3839 8.20768 11.0282 8.00004 11.0282ZM11.2743 7.75395C11.2743 8.34857 11.1124 8.90503 10.8342 9.38619C10.4988 9.05865 10.1036 8.79805 9.67191 8.60164C9.69497 8.32222 9.70782 8.03814 9.70782 7.75395C9.70782 7.46934 9.6949 7.18486 9.67178 6.90505C10.1009 6.70968 10.4955 6.44891 10.8336 6.12072C11.1122 6.60212 11.2743 7.15891 11.2743 7.75395ZM10.3489 5.47802C10.1178 5.7164 9.85592 5.9206 9.56621 6.07959C9.47525 5.5614 9.34182 5.08516 9.16407 4.6974C9.61508 4.86977 10.0186 5.13731 10.3489 5.47802ZM9.56648 9.42676C9.85844 9.58662 10.1202 9.79128 10.3492 10.0296C10.0189 10.3704 9.61522 10.6381 9.16407 10.8105C9.34199 10.4224 9.47552 9.94555 9.56648 9.42676ZM8.91473 7.75395C8.91473 7.95813 8.9074 8.14987 8.8968 8.33529C8.31038 8.20478 7.69002 8.20471 7.10329 8.33541C7.09269 8.14996 7.08536 7.95815 7.08536 7.75395C7.08536 7.54953 7.09271 7.35757 7.10334 7.17193C7.39491 7.2374 7.69424 7.27414 8.00004 7.27414C8.30578 7.27414 8.60503 7.23743 8.89675 7.17189C8.90737 7.35753 8.91473 7.5495 8.91473 7.75395ZM8.81668 6.37807C8.28596 6.51281 7.71333 6.51264 7.1834 6.37817C7.37342 5.12352 7.79248 4.47974 8.00004 4.47974C8.20761 4.47974 8.62664 5.12349 8.81668 6.37807Z" fill="white"/>
<path d="M8.00042 14.4489C7.13026 14.4489 6.31161 14.876 5.81012 15.5909C5.68465 15.7702 5.72802 16.0176 5.90732 16.1435C6.087 16.2685 6.33368 16.2256 6.45993 16.0463C6.81271 15.5425 7.38856 15.2419 8.00042 15.2419C8.61227 15.2419 9.18812 15.5425 9.5409 16.0463C9.61835 16.1562 9.74111 16.2151 9.86619 16.2151C9.94481 16.2151 10.0242 16.1919 10.0935 16.1435C10.2728 16.0176 10.3162 15.7702 10.1907 15.5909C9.68922 14.876 8.87057 14.4489 8.00042 14.4489Z" fill="white"/>
<path d="M7.99993 12.76C6.57639 12.76 5.23921 13.4567 4.42327 14.6231C4.2978 14.8024 4.34156 15.0498 4.52086 15.1753C4.70016 15.3008 4.94761 15.2574 5.07308 15.0777C5.74109 14.1231 6.83508 13.5531 7.99993 13.5531C9.16478 13.5531 10.2588 14.1231 10.9268 15.0777C11.0038 15.1881 11.127 15.2469 11.2521 15.2469C11.3307 15.2469 11.4097 15.2237 11.479 15.1753C11.6583 15.0498 11.7021 14.8024 11.5766 14.6231C10.7606 13.4567 9.42347 12.76 7.99993 12.76Z" fill="white"/>
<path d="M8.00029 17.75C8.3496 17.75 8.63278 17.4669 8.63278 17.1175C8.63278 16.7682 8.3496 16.485 8.00029 16.485C7.65097 16.485 7.3678 16.7682 7.3678 17.1175C7.3678 17.4669 7.65097 17.75 8.00029 17.75Z" fill="white"/>
</svg>
