<svg width="20" height="21" viewBox="0 0 20 21" fill="none" xmlns="http://www.w3.org/2000/svg">
<path fill-rule="evenodd" clip-rule="evenodd" d="M7.881 2.26745L15.2533 5.42775C15.3725 5.47887 15.4498 5.5961 15.4498 5.72583V11.6847C15.4498 15.9899 12.3168 19.7091 8.07773 20.4474L7.80994 20.495C7.7724 20.5017 7.73401 20.5017 7.69647 20.495L7.42867 20.4474C3.19139 19.7091 0.0584106 15.9899 0.0584106 11.6847V5.72583C0.0584106 5.59614 0.135677 5.47891 0.254901 5.42779L7.62541 2.26749C7.70701 2.2325 7.7994 2.2325 7.881 2.26745ZM7.75322 2.91841L0.707027 5.93967V11.6847C0.707027 15.6762 3.61197 19.1244 7.54064 19.8086C7.54101 19.8086 7.54137 19.8087 7.54174 19.8087L7.75322 19.8463L7.96471 19.8087C7.96508 19.8087 7.96544 19.8086 7.96581 19.8085C11.8962 19.1243 14.8012 15.6762 14.8012 11.6847V5.93967L7.75322 2.91841ZM7.88088 4.07072L13.5346 6.49318C13.6539 6.5443 13.7312 6.66154 13.7312 6.7913V11.7027C13.7312 15.1802 11.2196 18.1968 7.81375 18.8445C7.7737 18.8522 7.73255 18.8522 7.6925 18.8445C4.28856 18.1967 1.777 15.1802 1.777 11.7027V6.7913C1.777 6.66158 1.85431 6.54434 1.97353 6.49322L7.62537 4.07072C7.70697 4.03578 7.79928 4.03574 7.88088 4.07072ZM7.75314 4.72165L2.42562 7.00514V11.7027C2.42562 14.8493 4.68365 17.5814 7.75322 18.1955C10.8245 17.5814 13.0826 14.8494 13.0826 11.7027V7.00518L7.75314 4.72165ZM5.74085 14.3647H3.93008C3.75094 14.3647 3.60577 14.2195 3.60577 14.0404V9.67521C3.60577 9.49611 3.75094 9.3509 3.93008 9.3509H5.76092C6.11567 9.09235 6.50602 8.8468 6.81484 8.54601C7.09784 8.27039 7.30836 7.94482 7.30836 7.49213V6.16701C7.30836 5.98791 7.45356 5.8427 7.63266 5.8427C8.68496 5.8427 9.54636 6.7041 9.54636 7.7564V8.78425C9.54636 8.79905 9.54535 8.81385 9.54332 8.82856C9.52991 8.92573 9.49979 9.03965 9.45102 9.16122C9.52609 9.14209 9.60466 9.13191 9.68549 9.13191H11.2588C11.7845 9.13191 12.2146 9.56194 12.2146 10.0876C12.2146 10.265 12.1656 10.4314 12.0807 10.5741C12.3225 10.7479 12.4807 11.0316 12.4807 11.3505C12.4807 11.7252 12.2622 12.0514 11.9463 12.2078C12.0045 12.331 12.0371 12.4686 12.0371 12.6133C12.0371 12.9676 11.8427 13.2778 11.5557 13.4432C11.6227 13.5736 11.6605 13.7211 11.6605 13.8771C11.6605 14.4028 11.2305 14.8328 10.7048 14.8328H9.68549C9.61427 14.8328 9.54482 14.8249 9.47793 14.81C7.7514 15.1074 6.75395 15.2676 5.74085 14.3647ZM5.54343 9.99952H4.25439V13.716H5.54343V9.99952ZM8.55564 11.7586C8.40971 11.873 8.27078 11.9618 8.1651 12.0225C8.00987 12.1116 7.81148 12.0579 7.72237 11.9027C7.63323 11.7475 7.68686 11.5491 7.84209 11.46C8.17977 11.2661 9.12553 10.6699 8.51381 9.77737C8.42552 9.64857 8.44157 9.47515 8.552 9.36472C8.7542 9.16248 8.86844 8.92845 8.89775 8.75944V7.7564C8.89775 7.17277 8.4969 6.67795 7.95697 6.53376V7.49213C7.95697 8.14091 7.67296 8.61565 7.26741 9.01066C6.95137 9.31847 6.55697 9.57455 6.19221 9.83898C6.19436 12.122 6.19472 13.4753 6.1933 13.8986C6.67437 14.3158 7.15548 14.425 7.75416 14.3975C8.07238 14.3828 8.42057 14.3323 8.81314 14.2664C8.75959 14.1474 8.72976 14.0155 8.72976 13.8771C8.72976 13.6355 8.82056 13.4141 8.96978 13.2454C8.8206 13.0764 8.72976 12.8548 8.72976 12.6133C8.72976 12.436 8.77865 12.2696 8.86366 12.1269C8.73235 12.0325 8.62573 11.9058 8.55564 11.7586ZM9.59708 14.1712C9.62509 14.1796 9.6548 14.1842 9.68549 14.1842H10.7048C10.8738 14.1842 11.0119 14.046 11.0119 13.8771C11.0119 13.7081 10.8738 13.57 10.7048 13.57H10.7044L9.89556 13.5691L9.68695 13.57C9.68646 13.57 9.68598 13.57 9.68549 13.57C9.51653 13.57 9.37837 13.7081 9.37837 13.8771C9.37837 14.0116 9.46594 14.1265 9.58686 14.1678C9.59027 14.169 9.59367 14.1701 9.59708 14.1712ZM10.7052 12.9214H11.0814C11.2504 12.9214 11.3885 12.7829 11.3885 12.6133C11.3885 12.4444 11.2503 12.3062 11.0814 12.3062H9.68549C9.51653 12.3062 9.37837 12.4444 9.37837 12.6133C9.37837 12.7819 9.51564 12.9206 9.68403 12.9214H9.68549L9.89354 12.9204H9.8954L10.7048 12.9214H10.7052ZM9.41932 11.6576H11.525C11.6939 11.6576 11.8321 11.5194 11.8321 11.3505C11.8321 11.1815 11.6939 11.0434 11.525 11.0434H9.41932C9.25039 11.0434 9.1122 11.1815 9.1122 11.3505C9.1122 11.5194 9.25039 11.6576 9.41932 11.6576ZM11.2588 10.3948C11.4278 10.3948 11.566 10.2566 11.566 10.0876C11.566 9.91872 11.4278 9.78053 11.2588 9.78053H9.68549C9.51653 9.78053 9.37837 9.91872 9.37837 10.0876C9.37837 10.2566 9.51653 10.3948 9.68549 10.3948H11.2588ZM16.1968 2.83714V3.82534C16.1968 4.3043 15.808 4.69311 15.3291 4.69311C14.8502 4.69311 14.4613 4.3043 14.4613 3.82534V2.83714C14.2065 2.8257 13.959 2.70267 13.7976 2.48048C13.5161 2.09301 13.6021 1.54992 13.9895 1.26838L14.819 0.665732C15.1232 0.444756 15.535 0.444756 15.8392 0.665732L16.6686 1.26838C17.0561 1.54992 17.1421 2.09301 16.8606 2.48048C16.6992 2.70267 16.4517 2.8257 16.1968 2.83714ZM16.0435 2.15694C16.14 2.21682 16.268 2.19261 16.3359 2.09921C16.4069 2.00139 16.3853 1.86421 16.2874 1.79315L15.4579 1.19046C15.3811 1.13468 15.2771 1.13468 15.2003 1.19046L14.3708 1.79315C14.2729 1.86421 14.2512 2.00139 14.3223 2.09921C14.3901 2.19261 14.5181 2.21682 14.6147 2.15694C14.7147 2.09488 14.8405 2.09192 14.9433 2.14912C15.0462 2.20636 15.1099 2.31484 15.1099 2.43252V3.82534C15.1099 3.94631 15.2081 4.04449 15.3291 4.04449C15.45 4.04449 15.5482 3.94631 15.5482 3.82534V2.43252C15.5482 2.31484 15.612 2.20636 15.7148 2.14912C15.8177 2.09192 15.9435 2.09488 16.0435 2.15694ZM19.1122 5.9695V6.95775C19.1122 7.43667 18.7234 7.82548 18.2445 7.82548C17.7655 7.82548 17.3767 7.43667 17.3767 6.95775V5.9695C17.1219 5.95807 16.8744 5.83508 16.713 5.61285C16.4315 5.22538 16.5175 4.68229 16.9049 4.40079L17.7344 3.7981C18.0386 3.57713 18.4504 3.57713 18.7545 3.7981L19.584 4.40079C19.9715 4.68229 20.0575 5.22538 19.776 5.61285C19.6145 5.83508 19.3671 5.95807 19.1122 5.9695ZM18.9589 5.28931C19.0554 5.34918 19.1834 5.32498 19.2512 5.23162C19.3223 5.13376 19.3006 4.99662 19.2028 4.92552L18.3733 4.32287C18.2965 4.26705 18.1925 4.26705 18.1157 4.32287L17.2862 4.92552C17.1883 4.99662 17.1666 5.13376 17.2377 5.23162C17.3056 5.32498 17.4335 5.34918 17.5301 5.28931C17.6301 5.22728 17.7559 5.22429 17.8587 5.28153C17.9616 5.33877 18.0254 5.44721 18.0254 5.56489V6.95775C18.0254 7.07868 18.1235 7.17686 18.2445 7.17686C18.3654 7.17686 18.4636 7.07868 18.4636 6.95775V5.56489C18.4636 5.44721 18.5274 5.33877 18.6302 5.28153C18.7331 5.22429 18.8589 5.22728 18.9589 5.28931Z" fill="white"/>
</svg>
