<svg width="38" height="38" viewBox="0 0 38 38" fill="none" xmlns="http://www.w3.org/2000/svg">
<path d="M9.17985 7.97988C9.35204 7.7306 9.69373 7.66812 9.94301 7.84031L18.0105 13.4127C18.0881 13.4663 18.194 13.4107 18.194 13.3164V8.72769C18.194 7.66434 19.3709 7.02288 20.2645 7.5988L36.3179 17.945H36.318C37.0236 18.3998 37.45 19.1819 37.45 20.0214V35.2275C37.45 36.4549 36.455 37.4501 35.2275 37.4501H2.22255C0.995039 37.45 1.2063e-06 36.455 0 35.2275V3.53235C1.27382e-05 2.44966 1.21539 1.81201 2.10626 2.42726L2.10633 2.42733L7.92104 6.44363C8.17032 6.61582 8.23286 6.95751 8.06068 7.20679C7.8885 7.45608 7.54681 7.51862 7.29752 7.34644L1.48275 3.33006C1.31963 3.21743 1.09718 3.33418 1.09717 3.53235V35.2275C1.09717 35.8491 1.60099 36.3529 2.22255 36.3529H35.2275C35.849 36.3529 36.3528 35.849 36.3528 35.2275V20.0214C36.3528 19.5548 36.1158 19.12 35.7235 18.8672V18.8671L19.6702 8.52104C19.5065 8.41559 19.2912 8.5331 19.2912 8.72769V13.3164C19.2911 14.2953 18.1923 14.8716 17.387 14.3154L9.31943 8.74304C9.07016 8.57085 9.00767 8.22917 9.17985 7.97988Z" fill="#0E91D6"/>
<path d="M10.1318 20.9861C10.1318 20.6831 10.3774 20.4375 10.6804 20.4375C10.9834 20.4375 11.229 20.6831 11.229 20.9861V25.1309C11.3224 25.1308 11.4213 25.1307 11.5201 25.1304C11.7218 25.1298 11.9221 25.1289 12.0719 25.1283C12.1468 25.1279 12.2091 25.1276 12.2526 25.1274C12.2743 25.1273 12.2914 25.1272 12.303 25.1271C12.3088 25.1271 12.3133 25.1271 12.3163 25.127H12.3208L12.349 25.1276C12.639 25.1407 12.8708 25.379 12.8725 25.6725C12.8742 25.9755 12.6299 26.2225 12.327 26.2242H12.3224C12.3194 26.2242 12.3148 26.2242 12.309 26.2243C12.2973 26.2243 12.2801 26.2244 12.2582 26.2246C12.2145 26.2248 12.1521 26.2251 12.077 26.2254C11.9267 26.2261 11.7258 26.227 11.5232 26.2276C11.3207 26.2281 11.1157 26.2283 10.9576 26.2279C10.8789 26.2277 10.8102 26.2273 10.759 26.2267C10.7337 26.2264 10.7104 26.226 10.6913 26.2254C10.6821 26.2251 10.6711 26.2248 10.6601 26.2242C10.6597 26.2242 10.6254 26.2227 10.5874 26.2162C10.3242 26.1709 10.1318 25.9427 10.1318 25.6756V20.9861Z" fill="#0E91D6"/>
<path d="M27.4594 20.459L27.4876 20.4597C27.7774 20.4744 28.008 20.7141 28.008 21.0076C28.008 21.3011 27.7774 21.5408 27.4876 21.5554L27.4594 21.5562H26.0483V25.1097H27.4594C27.7623 25.1097 28.008 25.3553 28.008 25.6582C28.008 25.9612 27.7623 26.2068 27.4594 26.2068H25.4998C25.1968 26.2068 24.9512 25.9612 24.9512 25.6582V21.0076C24.9512 20.7046 25.1968 20.459 25.4998 20.459H27.4594Z" fill="#0E91D6"/>
<path d="M27.3149 22.7842C27.6178 22.7842 27.8635 23.0298 27.8635 23.3328C27.8635 23.6357 27.6178 23.8813 27.3149 23.8813H25.4998C25.1968 23.8813 24.9512 23.6357 24.9512 23.3328C24.9512 23.0298 25.1968 22.7842 25.4998 22.7842H27.3149Z" fill="#0E91D6"/>
<path d="M28.9629 25.5363V21.0603C28.9629 20.7573 29.2085 20.5117 29.5115 20.5117C29.8144 20.5117 30.0601 20.7573 30.0601 21.0603V25.5363C30.06 25.8392 29.8144 26.0848 29.5115 26.0848C29.2085 26.0848 28.9629 25.8392 28.9629 25.5363Z" fill="#0E91D6"/>
<path d="M28.9662 23.328C28.9662 23.0688 28.9654 22.5012 28.9645 21.9979C28.9641 21.7464 28.9637 21.511 28.9634 21.3386C28.9632 21.2524 28.9631 21.1819 28.963 21.133C28.963 21.1086 28.963 21.0895 28.963 21.0765C28.963 21.07 28.9629 21.0651 28.9629 21.0617V21.0567C28.9626 20.9111 29.0203 20.7712 29.1232 20.6682C29.2261 20.5651 29.3658 20.5071 29.5115 20.5071H30.8014L30.8741 20.5081C31.6208 20.5284 32.217 20.8628 32.615 21.3952C33.0127 21.9273 33.1893 22.6222 33.1893 23.3329C33.1893 24.7535 32.3709 26.1222 30.8488 26.1488C30.6612 26.1521 30.3283 26.1546 30.0453 26.1563C29.9031 26.1571 29.7725 26.1578 29.6775 26.1582C29.63 26.1584 29.5913 26.1586 29.5645 26.1587C29.5512 26.1588 29.5407 26.1588 29.5336 26.1589H29.5228C29.3773 26.1594 29.2375 26.1021 29.1342 25.9996C29.0374 25.9035 28.9801 25.7751 28.9729 25.6395L28.9721 25.6123V25.6075C28.9721 25.6043 28.9721 25.5997 28.972 25.5936C28.972 25.5813 28.9719 25.5633 28.9718 25.5401C28.9717 25.4938 28.9715 25.4268 28.9712 25.3445C28.9706 25.1799 28.9699 24.9538 28.9692 24.708C28.9677 24.2166 28.9662 23.6452 28.9662 23.328ZM30.0633 23.328C30.0633 23.6433 30.0648 24.213 30.0663 24.7047C30.0667 24.8297 30.0671 24.9496 30.0674 25.0589C30.3446 25.0572 30.6554 25.0548 30.8296 25.0518C31.5176 25.0397 32.0922 24.4222 32.0922 23.3329C32.0922 22.7887 31.9552 22.345 31.7362 22.0521C31.5305 21.7768 31.2328 21.6042 30.8015 21.6042H30.061C30.0612 21.7248 30.0615 21.858 30.0617 21.9961C30.0625 22.4991 30.0633 23.0677 30.0633 23.328Z" fill="#0E91D6"/>
<path d="M4.26074 23.3329C4.26074 21.7337 5.55708 20.4375 7.15609 20.4375C7.75491 20.4375 8.31282 20.6199 8.7752 20.9322C9.02626 21.1018 9.09234 21.4428 8.92278 21.6939C8.7532 21.9449 8.41218 22.011 8.16112 21.8415C7.87435 21.6478 7.52921 21.5347 7.15609 21.5347C6.16301 21.5347 5.35791 22.3397 5.35791 23.3329C5.35791 24.3259 6.16296 25.131 7.15609 25.131C7.55437 25.131 7.85578 25.003 8.07912 24.804L8.07926 24.8039C8.12673 24.7616 8.17175 24.7151 8.21419 24.6645C8.40888 24.4324 8.75486 24.4021 8.98699 24.5967C9.21913 24.7914 9.24948 25.1375 9.05478 25.3696C8.97933 25.4596 8.8974 25.5445 8.80885 25.6233L8.80877 25.6233C8.375 26.0097 7.81046 26.2282 7.15609 26.2282C5.55699 26.2282 4.26074 24.9319 4.26074 23.3329Z" fill="#0E91D6"/>
<path d="M21.147 20.5347C21.8057 20.3362 22.4007 20.4765 22.8065 20.6457C23.0112 20.7311 23.1774 20.8275 23.2934 20.9033C23.3518 20.9415 23.3985 20.9751 23.4322 21.0004C23.449 21.013 23.4627 21.0237 23.4729 21.0319C23.4781 21.0359 23.4824 21.0395 23.4858 21.0423C23.4875 21.0437 23.4891 21.0449 23.4904 21.046C23.491 21.0465 23.4916 21.047 23.4922 21.0475C23.4924 21.0477 23.4926 21.0479 23.4929 21.0481C23.493 21.0482 23.4932 21.0484 23.4932 21.0484C23.4934 21.0486 23.4936 21.0487 23.1583 21.4476L23.4936 21.0487C23.7255 21.2437 23.7555 21.5897 23.5605 21.8217C23.3656 22.0535 23.0198 22.0834 22.7879 21.8887C22.7879 21.8888 22.7879 21.8888 22.7879 21.8888C22.788 21.8888 22.7881 21.889 22.7882 21.8891C22.7884 21.8892 22.7886 21.8894 22.7887 21.8895L22.7889 21.8897C22.7863 21.8876 22.7809 21.8833 22.7728 21.8772C22.7565 21.865 22.7296 21.8456 22.6935 21.822C22.6206 21.7744 22.5141 21.7126 22.3842 21.6584C22.1206 21.5484 21.798 21.4844 21.4635 21.5852H21.4635C21.2003 21.6644 21.0918 21.8341 21.0659 21.9773C21.0406 22.1174 21.0868 22.2499 21.197 22.3363C21.2131 22.3434 21.233 22.3521 21.2564 22.3623C21.3264 22.3927 21.4276 22.4361 21.5508 22.4877C21.7979 22.5912 22.1315 22.7264 22.4808 22.8553C22.9951 23.0449 23.3872 23.3347 23.6195 23.7125C23.8557 24.0967 23.897 24.5261 23.7841 24.9164C23.5636 25.6783 22.7912 26.2282 21.8834 26.2283C21.0268 26.2283 20.2959 25.854 19.8413 25.3523C19.6379 25.1278 19.6549 24.7809 19.8794 24.5774C20.1039 24.374 20.4509 24.3911 20.6543 24.6156C20.9076 24.8951 21.3464 25.1311 21.8834 25.1311C22.3671 25.1311 22.6626 24.845 22.7302 24.6114C22.7613 24.5039 22.7516 24.3957 22.6849 24.2871C22.6141 24.172 22.4511 24.0137 22.1011 23.8846H22.1011C21.7323 23.7486 21.3833 23.607 21.1272 23.4998C20.9989 23.4461 20.8933 23.4007 20.8195 23.3687C20.7826 23.3527 20.7536 23.34 20.7337 23.3312C20.7237 23.3268 20.716 23.3234 20.7107 23.321C20.708 23.3199 20.7059 23.319 20.7045 23.3183C20.7038 23.318 20.7032 23.3177 20.7028 23.3175C20.7026 23.3175 20.7024 23.3174 20.7023 23.3173L20.7022 23.3173H20.7021L20.9255 22.8162L20.702 23.3172C20.6756 23.3054 20.6502 23.2916 20.626 23.2758C19.5233 22.5568 19.8489 20.9258 21.147 20.5347ZM22.7889 21.8897C22.7901 21.8906 22.7907 21.8911 22.7905 21.8909C22.7904 21.8909 22.7901 21.8906 22.7896 21.8902L22.7889 21.8897Z" fill="#0E91D6"/>
<path d="M17.8986 23.3329C17.8986 22.3397 17.0935 21.5347 16.1004 21.5347C15.1073 21.5347 14.3022 22.3397 14.3022 23.3329C14.3022 24.326 15.1073 25.131 16.1004 25.131C17.0935 25.131 17.8986 24.326 17.8986 23.3329ZM18.9958 23.3329C18.9958 24.9319 17.6995 26.2282 16.1004 26.2282C14.5014 26.2282 13.2051 24.9319 13.2051 23.3329C13.2051 21.7338 14.5014 20.4375 16.1004 20.4375C17.6995 20.4375 18.9958 21.7338 18.9958 23.3329Z" fill="#0E91D6"/>
<path d="M25.7646 5.83185C25.7646 4.27389 26.3763 2.85766 27.3713 1.81204C27.5802 1.59257 27.9274 1.58397 28.1469 1.79283C28.3664 2.00169 28.375 2.34894 28.1661 2.56842C27.3574 3.41826 26.8618 4.56658 26.8618 5.83185C26.8618 8.44674 28.9816 10.5665 31.5965 10.5665C34.2114 10.5664 36.3311 8.44673 36.3311 5.83185C36.3311 3.21696 34.2113 1.09719 31.5965 1.09717C31.0046 1.09717 30.4394 1.20548 29.9186 1.40289C29.6353 1.51028 29.3186 1.36768 29.2112 1.08438C29.1038 0.801085 29.2464 0.484402 29.5297 0.377009C30.1728 0.133216 30.8697 0 31.5965 0C34.8173 1.80979e-05 37.4283 2.611 37.4283 5.83185C37.4283 9.05268 34.8173 11.6636 31.5965 11.6636C28.3757 11.6636 25.7647 9.05269 25.7646 5.83185Z" fill="#0E91D6"/>
<path d="M31.8018 3.29918C32.4446 2.65649 33.4865 2.65648 34.1293 3.29918C34.772 3.94189 34.772 4.98394 34.1293 5.62666L33.924 5.83173L34.1293 6.03695C34.772 6.67967 34.772 7.72165 34.1293 8.36436C33.4865 9.00707 32.4446 9.00707 31.8018 8.36436L31.5966 8.15914L31.3916 8.36436C30.7488 9.00708 29.7068 9.00708 29.0641 8.36436C28.4214 7.72165 28.4214 6.67967 29.0641 6.03695L29.2692 5.83173L29.0641 5.62666C28.4214 4.98394 28.4214 3.94189 29.0641 3.29918C29.7068 2.65646 30.7488 2.65646 31.3916 3.29918L31.5966 3.50432L31.8018 3.29918ZM33.3535 4.07505C33.1392 3.86081 32.7919 3.86081 32.5776 4.07505L31.9846 4.66806C31.7703 4.88229 31.423 4.8823 31.2088 4.66806L30.6157 4.07505C30.4014 3.86081 30.0542 3.86081 29.8399 4.07505C29.6257 4.2893 29.6257 4.63654 29.8399 4.85078L30.433 5.44387C30.5358 5.54675 30.5937 5.68631 30.5937 5.8318C30.5937 5.97729 30.5358 6.1168 30.433 6.21967L29.8399 6.81276C29.6257 7.027 29.6257 7.37431 29.8399 7.58856C30.0542 7.80277 30.4014 7.80277 30.6157 7.58856L31.2088 6.99547C31.423 6.78125 31.7703 6.78126 31.9846 6.99547L32.5776 7.58856C32.7919 7.80279 33.1392 7.8028 33.3535 7.58856C33.5677 7.37432 33.5677 7.027 33.3535 6.81276L32.7604 6.21967C32.6575 6.1168 32.5997 5.97728 32.5997 5.8318C32.5997 5.68631 32.6575 5.54675 32.7604 5.44387L33.3535 4.85078C33.5677 4.63654 33.5677 4.28929 33.3535 4.07505Z" fill="#0E91D6"/>
<path d="M34.1473 26.2973V20.3683C34.1473 20.0209 33.8656 19.7393 33.5182 19.7393H3.93133C3.58388 19.7393 3.30226 20.0209 3.30225 20.3683V26.2973C3.30225 26.6447 3.5839 26.9263 3.93133 26.9264H18.7438C19.0468 26.9264 19.2924 27.172 19.2924 27.4749C19.2924 27.7779 19.0468 28.0235 18.7438 28.0235H3.93133C2.978 28.0235 2.20509 27.2507 2.20508 26.2973V20.3683C2.20509 19.415 2.97789 18.6421 3.93133 18.6421H33.5182C34.4715 18.6421 35.2445 19.4149 35.2445 20.3683V26.2973C35.2445 27.2506 34.4716 28.0235 33.5182 28.0235H21.4835C21.1805 28.0235 20.9349 27.7779 20.9349 27.4749C20.9349 27.172 21.1805 26.9264 21.4835 26.9264H33.5182C33.8656 26.9264 34.1473 26.6447 34.1473 26.2973Z" fill="#0E91D6"/>
<path d="M12.5228 31.7813C12.5228 31.7053 12.461 31.6436 12.3849 31.6436H9.57773C9.50161 31.6436 9.43995 31.7052 9.43994 31.7813V36.3529H12.5228V31.7813ZM13.62 36.9015C13.62 37.2044 13.3743 37.45 13.0714 37.45H8.89136C8.58838 37.45 8.34277 37.2044 8.34277 36.9015V31.7813C8.34278 31.0993 8.89566 30.5464 9.57773 30.5464H12.3849C13.0671 30.5464 13.62 31.0994 13.62 31.7813V36.9015Z" fill="#0E91D6"/>
<path d="M28.0101 31.7813C28.0101 31.7053 27.9483 31.6436 27.8722 31.6436H25.065C24.9889 31.6436 24.9273 31.7052 24.9272 31.7813V36.3529H28.0101V31.7813ZM29.1073 36.9015C29.1073 37.2044 28.8616 37.45 28.5587 37.45H24.3787C24.0757 37.45 23.8301 37.2044 23.8301 36.9015V31.7813C23.8301 31.0993 24.383 30.5464 25.065 30.5464H27.8722C28.5544 30.5464 29.1073 31.0994 29.1073 31.7813V36.9015Z" fill="#0E91D6"/>
<path d="M7.11913 6.64953C7.25465 6.37856 7.58418 6.26873 7.85514 6.40424C8.12611 6.53976 8.23594 6.86928 8.10044 7.14025L6.43068 10.4787L8.59523 12.0088C8.83955 12.1815 8.90036 12.5182 8.73195 12.7655L6.6564 15.8135C6.48587 16.0639 6.14466 16.1287 5.89424 15.9582C5.64382 15.7876 5.579 15.4464 5.74952 15.1959L7.52164 12.5934L5.41266 11.1027C5.19137 10.9463 5.11744 10.6517 5.23866 10.4093L7.11913 6.64953Z" fill="#0E91D6"/>
</svg>
