<svg width="68" height="70" viewBox="0 0 68 70" fill="none" xmlns="http://www.w3.org/2000/svg">
<path d="M67.356 32.7286C67.0556 32.1003 66.4363 31.7098 65.7398 31.7098H63.9435V16.4334C63.9435 15.4456 63.1398 14.6421 62.152 14.6421H57.7993C56.8115 14.6421 56.0079 15.4456 56.0079 16.4334V19.5358C56.0079 20.1021 56.4669 20.5612 57.0333 20.5612C57.5997 20.5612 58.0587 20.1021 58.0587 19.5358V16.6929H61.8926V31.9693C61.8926 32.9571 62.696 33.7607 63.6838 33.7607H65.1969L59.9756 40.2301L54.7545 33.7606H56.2674C57.2552 33.7606 58.0588 32.9571 58.0588 31.9693V24.3211C58.0588 23.7548 57.5999 23.2957 57.0334 23.2957C56.467 23.2957 56.008 23.7548 56.008 24.3211V31.7098H54.2116C53.515 31.7098 52.8958 32.1001 52.5955 32.7286C52.2952 33.3571 52.3802 34.0842 52.8177 34.6261L58.5819 41.7683C58.9237 42.1916 59.4318 42.4344 59.9756 42.4344C60.5196 42.4344 61.0278 42.1916 61.3696 41.7682L67.1338 34.6261C67.5713 34.084 67.6563 33.357 67.356 32.7286Z" fill="#0FCC7C"/>
<path d="M10.4503 54.6777H9.51628V41.1863C9.51628 40.1985 8.71265 39.395 7.72486 39.395H4.51908C3.53128 39.395 2.72765 40.1985 2.72765 41.1863V54.6776H1.79372C1.09714 54.6776 0.477806 55.0679 0.177572 55.6964C-0.122799 56.3248 -0.0377603 57.052 0.39974 57.5939L4.72798 62.957C5.06978 63.3804 5.57783 63.6232 6.12183 63.6234C6.66583 63.6235 7.17402 63.3805 7.51595 62.957L11.8443 57.5939C12.2817 57.0518 12.3669 56.3248 12.0665 55.6964C11.7661 55.068 11.1469 54.6777 10.4503 54.6777ZM6.12197 61.419L2.3365 56.7285H2.98728C3.97507 56.7285 4.7787 55.925 4.7787 54.9372V41.4459H7.46564V54.9372C7.46564 55.925 8.26913 56.7286 9.25693 56.7286H9.90771L6.12197 61.419Z" fill="#0FCC7C"/>
<path d="M18.8862 18.6912C18.586 18.0629 17.9666 17.6724 17.2702 17.6724H15.7791V1.79129C15.7791 0.803496 14.9755 0 13.9877 0H10.041C9.05324 0 8.2496 0.803496 8.2496 1.79129V17.6724H6.75855C6.06197 17.6724 5.44263 18.0627 5.14226 18.6912C4.84203 19.3197 4.9272 20.0468 5.3647 20.5887L10.6203 27.1008C10.9621 27.5244 11.4702 27.7672 12.0143 27.7672C12.5584 27.7672 13.0665 27.5244 13.4081 27.1008L18.664 20.5886C19.1015 20.0467 19.1866 19.3197 18.8862 18.6912ZM12.0143 25.5627L7.30132 19.7232H8.50896C9.49675 19.7232 10.3004 18.9197 10.3004 17.9319V2.05078H13.7282V17.9319C13.7282 18.9197 14.5317 19.7232 15.5195 19.7232H16.7273L12.0143 25.5627Z" fill="#0FCC7C"/>
<path d="M53.2248 57.3281C49.7311 57.3281 46.8887 60.1705 46.8887 63.6642C46.8887 67.1579 49.7311 70.0003 53.2248 70.0003C56.7186 70.0003 59.561 67.1579 59.561 63.6642C59.561 60.1705 56.7186 57.3281 53.2248 57.3281ZM53.2248 67.9495C50.8619 67.9495 48.9395 66.0271 48.9395 63.6642C48.9395 61.3013 50.8619 59.3789 53.2248 59.3789C55.5877 59.3789 57.5102 61.3013 57.5102 63.6642C57.5102 66.0271 55.5877 67.9495 53.2248 67.9495Z" fill="#0FCC7C"/>
<path d="M41.6085 51.0187C42.3726 50.332 43.1672 49.9437 43.9279 49.9094C45.4355 49.8399 47.0252 50.3901 48.2945 51.418C48.673 51.7237 49.176 51.8188 49.6398 51.6731C50.1011 51.528 50.4571 51.1647 50.5917 50.7011C51.0332 49.182 51.2571 47.5618 51.2571 45.8855C51.2571 43.2789 50.0651 39.791 47.6129 35.2221C45.6205 31.5099 43.0465 27.5858 41.0705 24.6762C41.9201 24.0581 42.4739 23.0567 42.4739 21.9281C42.4739 20.6102 41.719 19.466 40.6193 18.9029C41.4917 17.8419 42.0623 17.2752 42.4743 16.8621C43.1836 16.1511 43.9874 15.3451 44.5026 14.5009C45.4279 12.9844 45.0664 11.8823 44.5998 11.2241C42.8641 8.77934 39.1552 10.2683 37.1487 11.0791C35.9712 9.60621 33.9138 8.72656 32.5993 8.72656C31.2845 8.72656 29.2268 9.60635 28.0498 11.0791C26.0418 10.2677 22.3325 8.77934 20.5987 11.2243C20.132 11.8819 19.7699 12.984 20.6953 14.5006C21.2103 15.3447 22.0142 16.1505 22.7237 16.8616C23.0496 17.1884 23.3576 17.4971 23.6047 17.7758C23.9191 18.1301 24.2545 18.5082 24.5789 18.9027C23.479 19.4657 22.7239 20.61 22.7239 21.9281C22.7239 23.057 23.2779 24.0585 24.1279 24.6766C19.2423 31.8736 13.9414 40.5059 13.9414 45.8853C13.9414 47.9337 14.2735 49.8875 14.9284 51.6929C15.1221 52.2269 15.7114 52.4998 16.242 52.3072C16.7744 52.114 17.0493 51.526 16.8563 50.9936C16.2829 49.4131 15.9922 47.6946 15.9922 45.8855C15.9922 43.4604 17.0567 38.6931 26.1676 25.3254H39.0315C43.4995 31.8739 49.2065 40.8861 49.2065 45.8855C49.2065 47.0579 49.0837 48.1958 48.8406 49.2798C47.3216 48.2813 45.5744 47.7811 43.8352 47.8608C41.7671 47.9542 39.7637 49.4362 38.1804 52.0392C38.1722 52.0392 38.164 52.0392 38.1557 52.0392C37.1159 52.0392 36.3574 52.362 35.8998 52.9999C35.3659 53.7444 35.4153 54.7038 35.6473 55.6178C33.4104 54.9975 30.7683 54.392 29.0231 55.9185C27.8756 56.922 27.0009 58.2684 26.5191 59.7585C23.4066 58.7867 20.8047 57.0681 18.9677 54.7644C18.6143 54.3216 17.9691 54.2489 17.5267 54.602C17.0839 54.9551 17.0112 55.6002 17.3643 56.043C19.5857 58.8287 22.7628 60.8561 26.5518 61.9056C26.9242 62.0089 27.329 61.9554 27.6626 61.7599C27.9991 61.5629 28.2453 61.2328 28.3383 60.8543C28.6633 59.53 29.386 58.3253 30.3732 57.4619C30.7664 57.1179 31.3426 56.998 32.007 57.0097C32.2975 60.2358 35.0151 62.7727 38.3155 62.7727C41.8097 62.7727 44.6525 59.9306 44.6525 56.4372C44.6523 54.1724 43.4748 52.1452 41.6085 51.0187ZM26.121 23.2745C25.3785 23.2745 24.7745 22.6705 24.7745 21.9281C24.7745 21.1857 25.3785 20.5817 26.121 20.5817H39.0766C39.8191 20.5817 40.4231 21.1857 40.4231 21.9281C40.4231 22.6705 39.8191 23.2745 39.0766 23.2745H26.121ZM22.2711 12.4109C22.978 11.4143 25.2106 12.1437 27.3018 12.9888C28.1265 13.3214 29.0894 13.0667 29.6441 12.3687C30.4263 11.3827 31.8923 10.7772 32.5991 10.7772C33.306 10.7772 34.7721 11.3827 35.5547 12.3694C36.1086 13.0667 37.0716 13.3215 37.8971 12.9885C39.9873 12.1437 42.2195 11.4145 42.9272 12.4107C43.3801 13.0497 42.0174 14.4161 41.0222 15.4137C39.808 16.6308 38.8656 17.7667 38.3201 18.5308H26.878C26.3166 17.7444 25.6734 17.0175 25.1385 16.4147C24.8517 16.0912 24.523 15.7618 24.1751 15.4131C23.1802 14.4158 21.8176 13.05 22.2711 12.4109ZM38.3153 60.7221C36.2617 60.7221 34.5416 59.2696 34.1267 57.338C34.6186 57.4579 35.1089 57.5959 35.5711 57.726C36.2104 57.9061 36.9696 58.2096 37.6391 57.472C38.006 57.068 38.1138 56.5005 37.9211 55.9909C37.3567 54.4997 37.5641 54.1978 37.566 54.1953C37.5902 54.169 37.7806 54.0748 38.2697 54.0919C38.9177 54.1161 39.5287 53.7843 39.8577 53.2292C39.9858 53.0132 40.1174 52.8087 40.2512 52.6115C41.681 53.3293 42.6015 54.79 42.6015 56.4372C42.6015 58.7999 40.6788 60.7221 38.3153 60.7221Z" fill="#0FCC7C"/>
<path d="M32.8511 43.2468C31.7163 43.2468 30.6213 42.7861 29.922 42.0144C29.5416 41.5947 28.8933 41.5631 28.4735 41.9432C28.054 42.3236 28.022 42.9719 28.4022 43.3916C29.2102 44.283 30.3425 44.9058 31.5738 45.164V46.7077C31.5738 47.274 32.0328 47.7331 32.5992 47.7331C33.1656 47.7331 33.6246 47.274 33.6246 46.7077V45.2327C35.338 44.944 36.7336 43.7186 37.0121 42.1583C37.2544 40.8009 36.6233 39.0222 34.125 38.1007L33.6569 37.9283C32.4008 37.4663 31.7704 37.2345 31.181 36.9135C30.7401 36.6734 30.7368 36.2195 30.7558 36.0355C30.801 35.5996 31.1102 35.0552 31.8428 34.8345C33.4979 34.3363 35 35.5381 35.0308 35.563C35.4643 35.9235 36.1081 35.8666 36.4714 35.4344C36.8357 35.0009 36.7798 34.3541 36.3463 33.9897C36.2809 33.9349 35.1905 33.0356 33.6246 32.7483V31.251C33.6246 30.6847 33.1656 30.2256 32.5992 30.2256C32.0328 30.2256 31.5738 30.6847 31.5738 31.251V32.7867C31.4671 32.8112 31.3597 32.8383 31.2513 32.871C29.8531 33.2922 28.8579 34.4516 28.716 35.8246C28.5902 37.0402 29.159 38.1475 30.2002 38.7146C30.9214 39.1075 31.599 39.3566 32.9488 39.8532L33.4152 40.0249C34.5449 40.4416 35.12 41.0878 34.9932 41.7979C34.8663 42.51 34.0301 43.2468 32.8511 43.2468Z" fill="#0FCC7C"/>
</svg>
