<svg width="38" height="28" viewBox="0 0 38 28" fill="none" xmlns="http://www.w3.org/2000/svg">
<path d="M18.8576 27.8153C18.7328 27.8153 18.6079 27.7763 18.5065 27.6983C15.2998 25.2874 12.7016 22.4629 10.8057 19.3108C8.49619 15.5423 7.31024 11.532 7.26343 7.38896C7.26343 7.23291 7.32585 7.08467 7.43508 6.96764C7.53651 6.86621 7.67695 6.80379 7.81739 6.79599C11.9214 5.33696 15.1281 3.94036 18.3505 1.49045C18.3817 1.46704 18.4129 1.45143 18.4441 1.43583C18.4519 1.42803 18.4987 1.38121 18.5065 1.38121C18.7172 1.22517 19.0058 1.22517 19.2165 1.38902C22.158 3.65948 26.5584 5.42279 29.734 6.4995C29.968 6.57752 30.1319 6.80379 30.1319 7.05346V7.69325C30.007 15.3083 26.0279 22.5956 19.2087 27.6983C19.1073 27.7763 18.9824 27.8153 18.8576 27.8153ZM8.44157 7.81809C8.5586 11.5866 9.68993 15.2458 11.8043 18.7022C13.5599 21.6125 15.9317 24.2341 18.8576 26.4967C25.1696 21.6281 28.8445 14.7933 28.9615 7.68545V7.47479C25.864 6.40587 21.7835 4.73619 18.8576 2.59056C15.6353 4.97806 12.4597 6.38247 8.44157 7.81809Z" fill="#0E91D6"/>
<path d="M18.8586 24.39C18.726 24.39 18.5855 24.3432 18.4763 24.2496C16.2917 22.3614 14.4815 20.2392 13.0927 17.9375C11.4075 15.1833 10.3776 12.2731 10.0499 9.30041C10.0186 9.03514 10.1747 8.78546 10.4244 8.69184C13.7637 7.42787 16.2683 6.17951 18.5543 4.63466C18.7494 4.50202 18.9991 4.50202 19.1941 4.62685C21.2695 5.94544 23.9067 7.2016 27.0276 8.36414C27.2695 8.45777 27.4255 8.69964 27.4099 8.95711C26.9496 14.6294 24.0549 20.0597 19.2487 24.2496C19.1317 24.3432 18.9913 24.39 18.8586 24.39ZM11.267 9.6125C11.6259 12.2575 12.5778 14.8478 14.0914 17.3211C15.332 19.3887 16.9393 21.3003 18.8586 23.0246C23.0874 19.1937 25.6778 14.3563 26.2006 9.30041C23.3371 8.2159 20.8872 7.03776 18.8898 5.8128C16.713 7.24061 14.3255 8.43436 11.267 9.6125Z" fill="#0E91D6"/>
<path d="M17.6018 18.2104C17.1337 18.2104 16.6968 18.0309 16.3691 17.7032L14.6058 15.9321C14.2781 15.6044 14.0908 15.1675 14.0908 14.6994C14.0908 14.2312 14.2703 13.7943 14.6058 13.4666C15.2612 12.8112 16.4159 12.8034 17.0713 13.4666L17.6018 13.9972L20.3873 11.2118C21.0426 10.5564 22.1974 10.5564 22.8528 11.2118C23.1805 11.5395 23.3677 11.9764 23.3677 12.4445C23.3677 12.9127 23.1883 13.3496 22.8528 13.6773L18.8346 17.6954C18.5069 18.0309 18.07 18.2104 17.6018 18.2104ZM15.8307 14.1298C15.6747 14.1298 15.5342 14.1922 15.425 14.3015C15.3158 14.4107 15.2534 14.5589 15.2534 14.7072C15.2534 14.8632 15.3158 15.0037 15.425 15.1129L17.1883 16.884C17.4068 17.1025 17.7813 17.1025 17.9998 16.884L22.0179 12.8658C22.1272 12.7566 22.1896 12.6162 22.1896 12.4601C22.1896 12.3041 22.1272 12.1636 22.0179 12.0544C21.7995 11.8359 21.425 11.8359 21.2065 12.0544L18.0076 15.2533C17.7813 15.4796 17.4068 15.4796 17.1805 15.2533L16.2364 14.3093C16.1272 14.1844 15.9868 14.1298 15.8307 14.1298Z" fill="#0E91D6"/>
<path d="M32.6441 14.8322H28.4543C28.1344 14.8322 27.8691 14.5669 27.8691 14.247C27.8691 13.9271 28.1344 13.6619 28.4543 13.6619H32.6441C32.964 13.6619 33.2293 13.9271 33.2293 14.247C33.2293 14.5669 32.964 14.8322 32.6441 14.8322Z" fill="#0E91D6"/>
<path d="M33.8931 16.0804C32.8788 16.0804 32.0596 15.2534 32.0596 14.2469C32.0596 13.2404 32.8866 12.4133 33.8931 12.4133C34.8996 12.4133 35.7266 13.2404 35.7266 14.2469C35.7266 15.2534 34.9074 16.0804 33.8931 16.0804ZM33.8931 13.5759C33.5264 13.5759 33.2299 13.8724 33.2299 14.2391C33.2299 14.6058 33.5264 14.9023 33.8931 14.9023C34.2598 14.9023 34.5563 14.6058 34.5563 14.2391C34.5563 13.8724 34.2598 13.5759 33.8931 13.5759Z" fill="#0E91D6"/>
<path d="M34.0171 21.6903C33.0028 21.6903 32.1836 20.8632 32.1836 19.8567C32.1836 18.8502 33.0106 18.0232 34.0171 18.0232C35.0236 18.0232 35.8507 18.8502 35.8507 19.8567C35.8507 20.8632 35.0236 21.6903 34.0171 21.6903ZM34.0171 19.1857C33.6504 19.1857 33.3539 19.4822 33.3539 19.8489C33.3539 20.2156 33.6504 20.5121 34.0171 20.5121C34.3838 20.5121 34.6803 20.2156 34.6803 19.8489C34.6803 19.4822 34.3838 19.1857 34.0171 19.1857Z" fill="#0E91D6"/>
<path d="M32.902 19.8724C32.7616 19.8724 32.6211 19.8256 32.5119 19.7242L30.3273 17.7736H27.2844C26.9645 17.7736 26.6992 17.5083 26.6992 17.1884C26.6992 16.8685 26.9645 16.6033 27.2844 16.6033H30.5535C30.694 16.6033 30.8344 16.6579 30.9437 16.7515L33.2921 18.8503C33.534 19.0688 33.5496 19.4355 33.3389 19.6774C33.2219 19.81 33.0581 19.8724 32.902 19.8724Z" fill="#0E91D6"/>
<path d="M35.6167 9.85408C34.6024 9.85408 33.7832 9.02704 33.7832 8.02054C33.7832 7.01405 34.6102 6.18701 35.6167 6.18701C36.6232 6.18701 37.4503 7.00625 37.4503 8.02054C37.4503 9.03484 36.6232 9.85408 35.6167 9.85408ZM35.6167 7.34955C35.25 7.34955 34.9535 7.64604 34.9535 8.01274C34.9535 8.37945 35.25 8.67594 35.6167 8.67594C35.9834 8.67594 36.2799 8.37945 36.2799 8.01274C36.2799 7.64604 35.9834 7.34955 35.6167 7.34955Z" fill="#0E91D6"/>
<path d="M32.1452 11.2662H29.5471C29.2272 11.2662 28.9619 11.001 28.9619 10.6811C28.9619 10.3612 29.2272 10.0959 29.5471 10.0959H31.9268L34.1114 8.14534C34.3533 7.92688 34.72 7.95028 34.9385 8.19215C35.1569 8.43402 35.1335 8.80073 34.8916 9.01919L32.5432 11.118C32.4339 11.2116 32.2935 11.2662 32.1452 11.2662Z" fill="#0E91D6"/>
<path d="M8.99569 14.8324H4.80587C4.48598 14.8324 4.2207 14.5672 4.2207 14.2473C4.2207 13.9274 4.48598 13.6621 4.80587 13.6621H8.99569C9.31558 13.6621 9.58086 13.9274 9.58086 14.2473C9.58086 14.5672 9.31558 14.8324 8.99569 14.8324Z" fill="#0E91D6"/>
<path d="M3.55814 16.0804C2.54385 16.0804 1.72461 15.2534 1.72461 14.2469C1.72461 13.2404 2.55165 12.4133 3.55814 12.4133C4.56464 12.4133 5.39168 13.2404 5.39168 14.2469C5.39168 15.2534 4.57244 16.0804 3.55814 16.0804ZM3.55814 13.5759C3.19144 13.5759 2.89495 13.8724 2.89495 14.2391C2.89495 14.6058 3.19144 14.9023 3.55814 14.9023C3.92485 14.9023 4.22134 14.6058 4.22134 14.2391C4.22134 13.8724 3.92485 13.5759 3.55814 13.5759Z" fill="#0E91D6"/>
<path d="M3.43217 21.6903C2.41787 21.6903 1.59863 20.8632 1.59863 19.8567C1.59863 18.8502 2.42567 18.0232 3.43217 18.0232C4.43866 18.0232 5.2657 18.8502 5.2657 19.8567C5.2657 20.8632 4.44646 21.6903 3.43217 21.6903ZM3.43217 19.1857C3.06546 19.1857 2.76897 19.4822 2.76897 19.8489C2.76897 20.2156 3.06546 20.5121 3.43217 20.5121C3.79887 20.5121 4.09536 20.2156 4.09536 19.8489C4.09536 19.4822 3.79887 19.1857 3.43217 19.1857Z" fill="#0E91D6"/>
<path d="M4.54886 19.8724C4.38501 19.8724 4.22897 19.81 4.11193 19.6774C3.90127 19.4355 3.92468 19.0688 4.15875 18.8503L6.50723 16.7515C6.61646 16.6579 6.7569 16.6033 6.89734 16.6033H10.1665C10.4864 16.6033 10.7517 16.8685 10.7517 17.1884C10.7517 17.5083 10.4864 17.7736 10.1665 17.7736H7.12361L4.93897 19.7242C4.82974 19.8256 4.6893 19.8724 4.54886 19.8724Z" fill="#0E91D6"/>
<path d="M1.83353 9.85408C0.819238 9.85408 0 9.02704 0 8.02054C0 7.01405 0.82704 6.18701 1.83353 6.18701C2.84003 6.18701 3.66707 7.01405 3.66707 8.02054C3.66707 9.02704 2.84783 9.85408 1.83353 9.85408ZM1.83353 7.34955C1.46683 7.34955 1.17034 7.64604 1.17034 8.01274C1.17034 8.37945 1.46683 8.67594 1.83353 8.67594C2.20024 8.67594 2.49673 8.37945 2.49673 8.01274C2.49673 7.64604 2.20024 7.34955 1.83353 7.34955Z" fill="#0E91D6"/>
<path d="M7.3726 4.15095C6.3583 4.15095 5.53906 3.32391 5.53906 2.31742C5.53906 1.31093 6.3583 0.483887 7.3726 0.483887C8.38689 0.483887 9.20613 1.31093 9.20613 2.31742C9.20613 3.32391 8.38689 4.15095 7.3726 4.15095ZM7.3726 1.65423C7.00589 1.65423 6.7094 1.95071 6.7094 2.31742C6.7094 2.68413 7.00589 2.98061 7.3726 2.98061C7.7393 2.98061 8.03579 2.68413 8.03579 2.31742C8.03579 1.95071 7.7393 1.65423 7.3726 1.65423Z" fill="#0E91D6"/>
<path d="M7.90371 11.2667H5.30556C5.16512 11.2667 5.02467 11.2121 4.91544 11.1185L2.56696 9.01968C2.32509 8.80122 2.30949 8.43451 2.52015 8.19264C2.73861 7.95077 3.10532 7.92736 3.34719 8.14583L5.53182 10.0964H7.91151C8.23141 10.0964 8.49668 10.3617 8.49668 10.6816C8.49668 11.0015 8.2236 11.2667 7.90371 11.2667Z" fill="#0E91D6"/>
<path d="M7.84989 26.5823C6.8356 26.5823 6.01636 25.7553 6.01636 24.7488C6.01636 23.7423 6.8434 22.9153 7.84989 22.9153C8.85638 22.9153 9.68342 23.7423 9.68342 24.7488C9.68342 25.7553 8.86419 26.5823 7.84989 26.5823ZM7.84989 24.0856C7.48318 24.0856 7.1867 24.3821 7.1867 24.7488C7.1867 25.1155 7.48318 25.412 7.84989 25.412C8.2166 25.412 8.51308 25.1155 8.51308 24.7488C8.51308 24.3821 8.2166 24.0856 7.84989 24.0856Z" fill="#0E91D6"/>
<path d="M8.62155 24.343C8.47331 24.343 8.32506 24.2884 8.20803 24.1714C7.98176 23.9451 7.98176 23.5706 8.20803 23.3443L11.7034 19.8489C11.9297 19.6226 12.3042 19.6226 12.5305 19.8489C12.7568 20.0752 12.7568 20.4497 12.5305 20.6759L9.04287 24.1636C8.92584 24.2806 8.77759 24.343 8.62155 24.343Z" fill="#0E91D6"/>
<path d="M29.9615 26.5821C28.9472 26.5821 28.1279 25.7551 28.1279 24.7486C28.1279 23.7421 28.955 22.915 29.9615 22.915C30.968 22.915 31.795 23.7421 31.795 24.7486C31.795 25.7551 30.9758 26.5821 29.9615 26.5821ZM29.9615 24.0854C29.5948 24.0854 29.2983 24.3819 29.2983 24.7486C29.2983 25.1153 29.5948 25.4118 29.9615 25.4118C30.3282 25.4118 30.6247 25.1153 30.6247 24.7486C30.6247 24.3819 30.336 24.0854 29.9615 24.0854Z" fill="#0E91D6"/>
<path d="M29.189 24.343C29.0408 24.343 28.8925 24.2884 28.7755 24.1714L25.2879 20.6837C25.0616 20.4575 25.0616 20.083 25.2879 19.8567C25.5141 19.6304 25.8886 19.6304 26.1149 19.8567L29.6025 23.3443C29.8288 23.5706 29.8288 23.9451 29.6025 24.1714C29.4855 24.2806 29.3372 24.343 29.189 24.343Z" fill="#0E91D6"/>
<path d="M11.2591 6.7022C11.1109 6.7022 10.9626 6.64759 10.8456 6.53055L7.95876 3.64371C7.7325 3.41745 7.7325 3.04294 7.95876 2.81667C8.18503 2.59041 8.55954 2.59041 8.7858 2.81667L11.6726 5.70351C11.8989 5.92978 11.8989 6.30429 11.6726 6.53055C11.5556 6.64759 11.4074 6.7022 11.2591 6.7022Z" fill="#0E91D6"/>
<path d="M29.774 3.66707C28.7597 3.66707 27.9404 2.84003 27.9404 1.83353C27.9404 0.82704 28.7675 0 29.774 0C30.7805 0 31.6075 0.82704 31.6075 1.83353C31.6075 2.84003 30.7883 3.66707 29.774 3.66707ZM29.774 1.16254C29.4073 1.16254 29.1108 1.45902 29.1108 1.82573C29.1108 2.19244 29.4073 2.48892 29.774 2.48892C30.1407 2.48892 30.4372 2.19244 30.4372 1.82573C30.4372 1.45902 30.1407 1.16254 29.774 1.16254Z" fill="#0E91D6"/>
<path d="M25.8889 6.21831C25.7406 6.21831 25.5924 6.1637 25.4754 6.04667C25.2491 5.8204 25.2491 5.44589 25.4754 5.21962L28.3622 2.33279C28.5885 2.10652 28.963 2.10652 29.1892 2.33279C29.4155 2.55905 29.4155 2.93356 29.1892 3.15983L26.3024 6.04667C26.1854 6.1637 26.0371 6.21831 25.8889 6.21831Z" fill="#0E91D6"/>
</svg>
