<svg width="70" height="70" viewBox="0 0 70 70" fill="none" xmlns="http://www.w3.org/2000/svg">
<path fill-rule="evenodd" clip-rule="evenodd" d="M6.57632 54.8257C6.31896 54.8257 6.06547 54.7012 5.90963 54.4708C2.04412 48.7112 0 41.9806 0 35.0062C0 28.0317 2.04412 21.2972 5.90963 15.5299C6.15615 15.1622 6.65409 15.0644 7.02137 15.3105C7.39036 15.5567 7.48756 16.0548 7.24126 16.4226C-0.329637 27.7155 -0.329727 42.3001 7.24126 53.5774C7.48769 53.9446 7.39018 54.443 7.02281 54.6895C6.88536 54.7815 6.7306 54.8257 6.57632 54.8257Z" fill="white"/>
<path fill-rule="evenodd" clip-rule="evenodd" d="M54.0233 7.37696C53.8702 7.37696 53.7155 7.33306 53.5778 7.24122C42.2846 -0.329546 27.7004 -0.329547 16.4225 7.24099C16.0555 7.48751 15.5584 7.38996 15.3107 7.02223C15.0646 6.65472 15.1618 6.15678 15.5292 5.91008C21.2899 2.04362 28.0205 1.1877e-08 34.9945 1.1877e-08C41.9687 -0.000179896 48.7034 2.04353 54.4711 5.90981C54.8386 6.15597 54.9358 6.65413 54.6896 7.02182C54.5351 7.25237 54.2819 7.3771 54.0233 7.37696Z" fill="white"/>
<path fill-rule="evenodd" clip-rule="evenodd" d="M34.9948 70.0001C28.0206 70.0001 21.2899 67.9566 15.5293 64.0901C15.1619 63.8433 15.0645 63.3455 15.3108 62.9779C15.5586 62.61 16.0552 62.5126 16.4226 62.7593C27.7006 70.3294 42.2846 70.3295 53.5778 62.7589C53.9454 62.5124 54.4433 62.6107 54.6896 62.9783C54.9359 63.3458 54.8385 63.8439 54.4711 64.0906C48.7035 67.9566 41.9687 70.0003 34.9948 70.0001Z" fill="white"/>
<path fill-rule="evenodd" clip-rule="evenodd" d="M63.4238 54.8258C63.2706 54.8258 63.1148 54.7818 62.9784 54.6897C62.6113 54.443 62.5123 53.9451 62.7599 53.5775C70.3297 42.3 70.3295 27.716 62.7585 16.4228C62.5123 16.055 62.6111 15.5571 62.9784 15.3107C63.3458 15.0641 63.8439 15.1625 64.0902 15.5301C67.9572 21.2972 69.9998 28.0321 69.9998 35.0064C70 41.9807 67.9571 48.7115 64.0902 54.471C63.9359 54.7012 63.6825 54.8259 63.4238 54.8258Z" fill="white"/>
<path fill-rule="evenodd" clip-rule="evenodd" d="M10.8233 8.99938C9.81736 8.99938 9.0004 9.81724 9.0004 10.8225C9.00053 11.8274 9.81727 12.6456 10.8233 12.6456C11.828 12.6456 12.6462 11.8277 12.6462 10.8225C12.6464 9.81715 11.8279 8.99938 10.8233 8.99938ZM10.8233 14.2486C8.93388 14.2486 7.39746 12.7116 7.39746 10.8225C7.39755 8.93335 8.9337 7.39648 10.8233 7.39648C12.7118 7.39639 14.2492 8.9334 14.2492 10.8225C14.2494 12.7116 12.7115 14.2486 10.8233 14.2486Z" fill="white"/>
<path fill-rule="evenodd" clip-rule="evenodd" d="M10.8233 57.3542C9.81736 57.3542 9.0004 58.1722 9.0004 59.1775C9.00053 60.1826 9.81727 61.0006 10.8233 61.0006C11.828 61.0004 12.6462 60.1828 12.6462 59.1775C12.6464 58.172 11.8279 57.3544 10.8233 57.3542ZM10.8233 62.6034C8.93388 62.6034 7.39746 61.0666 7.39746 59.1775C7.39755 57.2882 8.9337 55.7515 10.8233 55.7515C12.7118 55.7512 14.2492 57.2884 14.2492 59.1775C14.2494 61.0664 12.7115 62.6036 10.8233 62.6034Z" fill="white"/>
<path fill-rule="evenodd" clip-rule="evenodd" d="M59.1788 57.3542C58.1729 57.3542 57.3546 58.1722 57.3546 59.1775C57.3548 60.1826 58.1727 61.0006 59.1788 61.0006C60.1835 61.0004 61.0016 60.1828 61.0016 59.1775C61.0019 58.172 60.1834 57.3544 59.1788 57.3542ZM59.1788 62.6034C57.2894 62.6034 55.7529 61.0666 55.7529 59.1775C55.7531 57.2882 57.2892 55.7515 59.1788 55.7515C61.067 55.7512 62.6046 57.2884 62.6046 59.1775C62.6046 61.0664 61.067 62.6036 59.1788 62.6034Z" fill="white"/>
<path fill-rule="evenodd" clip-rule="evenodd" d="M59.1788 8.99938C58.1729 8.99938 57.3546 9.81724 57.3546 10.8225C57.3548 11.8274 58.1727 12.6456 59.1788 12.6456C60.1835 12.6456 61.0016 11.8277 61.0016 10.8225C61.0019 9.81715 60.1834 8.99938 59.1788 8.99938ZM59.1788 14.2486C57.2894 14.2486 55.7529 12.7116 55.7529 10.8225C55.7531 8.93335 57.2892 7.39648 59.1788 7.39648C61.067 7.39639 62.6046 8.9334 62.6046 10.8225C62.6046 12.7116 61.067 14.2486 59.1788 14.2486Z" fill="white"/>
<path fill-rule="evenodd" clip-rule="evenodd" d="M35 21.3744C27.6182 21.3744 21.6137 27.4868 21.6137 35C21.6138 42.5128 27.6179 48.6255 34.9997 48.6255C42.3815 48.6255 48.3871 42.5131 48.3871 35C48.3874 27.4867 42.3815 21.3745 35 21.3744ZM35 50.2284C26.7346 50.2284 20.0107 43.397 20.0107 35C20.0108 26.6029 26.7344 19.7715 34.9997 19.7715C43.2654 19.7714 49.9901 26.6029 49.9901 35C49.9904 43.397 43.2651 50.2284 35 50.2284Z" fill="white"/>
<path fill-rule="evenodd" clip-rule="evenodd" d="M32.065 59.3782H37.8871L38.5968 54.5749C38.6454 54.2458 38.893 53.9812 39.2172 53.9095C41.3949 53.4287 43.4584 52.5713 45.3521 51.3607C45.6334 51.1814 45.995 51.1939 46.2622 51.3925L50.1612 54.2884L54.2717 50.1767L51.376 46.2785C51.1784 46.0118 51.1644 45.6506 51.3439 45.3702C52.535 43.4984 53.3935 41.432 53.8944 39.2284C53.9683 38.9057 54.2312 38.6617 54.5582 38.6133L59.3618 37.9032V32.0812L54.5584 31.3711C54.23 31.3223 53.9655 31.0757 53.8931 30.7509C53.4131 28.5734 52.5558 26.5094 51.3439 24.6157C51.1646 24.3352 51.1783 23.9731 51.3759 23.706L54.2717 19.8074L50.1612 15.696L46.2624 18.592C45.9953 18.7902 45.6346 18.8033 45.3536 18.6249C43.4822 17.4336 41.4157 16.5752 39.2116 16.0738C38.8902 16.0003 38.6452 15.7366 38.5966 15.4095L37.8871 10.6059H32.065L31.3556 15.4092C31.3067 15.7382 31.0589 16.0032 30.7347 16.0749C28.5572 16.5554 26.4935 17.4131 24.5997 18.6239C24.3187 18.803 23.9568 18.7905 23.6897 18.5921L19.7909 15.696L15.6805 19.8074L18.5762 23.7056C18.7737 23.9723 18.7874 24.3338 18.608 24.6141C17.4171 26.4861 16.5583 28.5528 16.0574 30.7561C15.9838 31.0784 15.7207 31.3227 15.3937 31.3711L10.5904 32.0812V37.9032L15.3937 38.6133C15.7221 38.6619 15.9865 38.9088 16.0588 39.2335C16.5389 41.4107 17.3974 43.475 18.608 45.3688C18.7875 45.6489 18.7749 46.0113 18.576 46.2786L15.6805 50.1767L19.7909 54.2881L23.6898 51.3921C23.9568 51.1942 24.3172 51.1814 24.5983 51.3597C26.4699 52.5508 28.5362 53.4092 30.7402 53.9107C31.0619 53.9838 31.3066 54.2478 31.3553 54.575L32.065 59.3782ZM38.5787 60.9812H31.3734C30.9755 60.9812 30.6387 60.6901 30.5803 60.297L29.8484 55.3445C27.8475 54.8354 25.955 54.0499 24.2087 53.0035L20.1917 55.9875C19.873 56.2245 19.4276 56.1922 19.1465 55.9111L14.0565 50.821C13.777 50.5399 13.7434 50.0954 13.9799 49.7763L16.9647 45.76C15.9019 43.9971 15.1154 42.1044 14.62 40.1194L9.67208 39.3879C9.27826 39.3297 8.9873 38.9923 8.9873 38.595L8.98739 31.3893C8.98739 30.992 9.27808 30.6547 9.67046 30.5964L14.6245 29.8642C15.1323 27.8633 15.9182 25.971 16.9646 24.2253L13.9801 20.2078C13.7434 19.8888 13.7768 19.4443 14.0565 19.1634L19.1466 14.0733C19.429 13.7921 19.8728 13.7597 20.1915 13.9967L24.2088 16.9799C25.9718 15.9173 27.8641 15.131 29.8483 14.6365L30.5804 9.6873C30.639 9.29411 30.9754 9.00315 31.3734 9.00315L38.5787 9.00293C38.9766 9.00293 39.3131 9.29429 39.3716 9.68739L40.1037 14.64C42.1046 15.1487 43.9969 15.9346 45.7432 16.981L49.7604 13.9966C50.0792 13.7596 50.5243 13.7923 50.8054 14.0734L55.8956 19.1631C56.1768 19.4442 56.2085 19.889 55.9719 20.2081L52.9886 24.224C54.0503 25.9873 54.8365 27.8801 55.3319 29.865L60.2816 30.5962C60.6739 30.6544 60.9646 30.992 60.9646 31.3895L60.9647 38.5948C60.9647 38.9922 60.6737 39.3298 60.2813 39.388L55.3293 40.1199C54.8198 42.1211 54.0336 44.0137 52.9872 45.7591L55.972 49.7763C56.2087 50.0953 56.1765 50.5401 55.8954 50.8212L50.8055 55.9108C50.5244 56.192 50.079 56.2247 49.7604 55.9879L45.7448 53.0041C43.9803 54.0668 42.0878 54.8534 40.1035 55.3479L39.3717 60.2968C39.3132 60.69 38.9764 60.9813 38.5787 60.9812Z" fill="white"/>
<path fill-rule="evenodd" clip-rule="evenodd" d="M40.7259 43.2296C40.2835 43.2296 39.9258 42.871 39.9258 42.4283L39.926 32.3594C39.926 31.917 40.2834 31.5581 40.7259 31.5581C41.1698 31.5579 41.5274 31.917 41.5274 32.3596V42.4281C41.5274 42.8708 41.1698 43.2298 40.7259 43.2296Z" fill="white"/>
<path fill-rule="evenodd" clip-rule="evenodd" d="M29.2744 43.2297C28.8317 43.2297 28.4727 42.8711 28.4727 42.4285L28.4729 38.5632C28.4729 38.1205 28.8317 37.7617 29.2741 37.7617C29.7168 37.7617 30.0757 38.1206 30.0757 38.5632L30.0759 42.4282C30.0759 42.8709 29.7167 43.2299 29.2744 43.2297Z" fill="white"/>
<path fill-rule="evenodd" clip-rule="evenodd" d="M33.0907 43.2298C32.6483 43.2298 32.2891 42.8712 32.2891 42.4286L32.2892 36.8452C32.2892 36.4028 32.6481 36.0439 33.0906 36.0439C33.5347 36.0437 33.892 36.4028 33.892 36.8454L33.8922 42.4283C33.8922 42.8711 33.5344 43.2301 33.0907 43.2298Z" fill="white"/>
<path fill-rule="evenodd" clip-rule="evenodd" d="M36.909 43.2296C36.4666 43.2296 36.1074 42.871 36.1074 42.4284L36.1075 34.7933C36.1075 34.3503 36.4664 33.9917 36.9089 33.9917C37.3517 33.9915 37.7104 34.3506 37.7104 34.7933L37.7105 42.4281C37.7105 42.8708 37.3514 43.2299 36.909 43.2296Z" fill="white"/>
<path fill-rule="evenodd" clip-rule="evenodd" d="M29.2726 35.9766C29.1182 35.9766 28.9622 35.9323 28.8245 35.8394C28.4586 35.5915 28.3625 35.0933 28.6102 34.7266L32.2519 29.3343C32.4688 29.0133 32.8834 28.8935 33.2383 29.0489L36.7199 30.5744L40.1497 27.0156C40.4575 26.6972 40.9637 26.6877 41.2824 26.995C41.6011 27.3021 41.6107 27.8095 41.3032 28.1282L37.4866 32.0887C37.2527 32.3301 36.895 32.4016 36.5875 32.2668L33.2065 30.785L29.9379 35.6238C29.7832 35.853 29.5299 35.9768 29.2726 35.9766Z" fill="white"/>
<path fill-rule="evenodd" clip-rule="evenodd" d="M42.3971 43.2294H27.6042C27.1618 43.2294 26.8027 42.8708 26.8027 42.4282C26.8027 41.9856 27.1617 41.6267 27.6042 41.6267L42.3971 41.6265C42.8398 41.6265 43.1985 41.9856 43.1985 42.4282C43.1985 42.8707 42.8395 43.2297 42.3971 43.2294Z" fill="white"/>
</svg>
