<?xml version="1.0" encoding="UTF-8"?>
<svg id="Layer_1" xmlns="http://www.w3.org/2000/svg" version="1.1" viewBox="0 0 70 70">
  <!-- Generator: Adobe Illustrator 29.8.1, SVG Export Plug-In . SVG Version: 2.1.1 Build 2)  -->
  <defs>
    <style>
      .st0 {
        fill: #0fcc7c;
        fill-rule: evenodd;
      }
    </style>
  </defs>
  <path class="st0" d="M6.58,54.83c-.26,0-.51-.12-.67-.35-3.87-5.76-5.91-12.49-5.91-19.46s2.04-13.71,5.91-19.48c.25-.37.74-.47,1.11-.22.37.25.47.74.22,1.11C-.33,27.72-.33,42.3,7.24,53.58c.25.37.15.87-.22,1.11-.14.09-.29.14-.45.14Z"/>
  <path class="st0" d="M54.02,7.38c-.15,0-.31-.04-.45-.14-11.29-7.57-25.88-7.57-37.16,0-.37.25-.86.15-1.11-.22-.25-.37-.15-.87.22-1.11C21.29,2.04,28.02,0,34.99,0c6.97,0,13.71,2.04,19.48,5.91.37.25.46.74.22,1.11-.15.23-.41.36-.67.36Z"/>
  <path class="st0" d="M34.99,70c-6.97,0-13.7-2.04-19.47-5.91-.37-.25-.46-.74-.22-1.11.25-.37.74-.47,1.11-.22,11.28,7.57,25.86,7.57,37.16,0,.37-.25.87-.15,1.11.22.25.37.15.87-.22,1.11-5.77,3.87-12.5,5.91-19.48,5.91Z"/>
  <path class="st0" d="M63.42,54.83c-.15,0-.31-.04-.45-.14-.37-.25-.47-.74-.22-1.11,7.57-11.28,7.57-25.86,0-37.15-.25-.37-.15-.87.22-1.11.37-.25.87-.15,1.11.22,3.87,5.77,5.91,12.5,5.91,19.48,0,6.97-2.04,13.71-5.91,19.46-.15.23-.41.35-.67.35Z"/>
  <path class="st0" d="M10.82,9c-1.01,0-1.82.82-1.82,1.82,0,1,.82,1.82,1.82,1.82s1.82-.82,1.82-1.82c0-1.01-.82-1.82-1.82-1.82ZM10.82,14.25c-1.89,0-3.43-1.54-3.43-3.43,0-1.89,1.54-3.43,3.43-3.43,1.89,0,3.43,1.54,3.43,3.43,0,1.89-1.54,3.43-3.43,3.43Z"/>
  <path class="st0" d="M10.82,57.35c-1.01,0-1.82.82-1.82,1.82,0,1.01.82,1.82,1.82,1.82,1,0,1.82-.82,1.82-1.82,0-1.01-.82-1.82-1.82-1.82ZM10.82,62.6c-1.89,0-3.43-1.54-3.43-3.43,0-1.89,1.54-3.43,3.43-3.43,1.89,0,3.43,1.54,3.43,3.43,0,1.89-1.54,3.43-3.43,3.43Z"/>
  <path class="st0" d="M59.18,57.35c-1.01,0-1.82.82-1.82,1.82,0,1.01.82,1.82,1.82,1.82,1,0,1.82-.82,1.82-1.82,0-1.01-.82-1.82-1.82-1.82ZM59.18,62.6c-1.89,0-3.43-1.54-3.43-3.43,0-1.89,1.54-3.43,3.43-3.43,1.89,0,3.43,1.54,3.43,3.43s-1.54,3.43-3.43,3.43Z"/>
  <path class="st0" d="M59.18,9c-1.01,0-1.82.82-1.82,1.82,0,1,.82,1.82,1.82,1.82s1.82-.82,1.82-1.82c0-1.01-.82-1.82-1.82-1.82ZM59.18,14.25c-1.89,0-3.43-1.54-3.43-3.43,0-1.89,1.54-3.43,3.43-3.43,1.89,0,3.43,1.54,3.43,3.43s-1.54,3.43-3.43,3.43Z"/>
  <path class="st0" d="M35,21.37c-7.38,0-13.39,6.11-13.39,13.63,0,7.51,6,13.63,13.39,13.63s13.39-6.11,13.39-13.63c0-7.51-6.01-13.63-13.39-13.63ZM35,50.23c-8.27,0-14.99-6.83-14.99-15.23,0-8.4,6.72-15.23,14.99-15.23,8.27,0,14.99,6.83,14.99,15.23,0,8.4-6.72,15.23-14.99,15.23Z"/>
  <path class="st0" d="M32.07,59.38h5.82l.71-4.8c.05-.33.3-.59.62-.67,2.18-.48,4.24-1.34,6.14-2.55.28-.18.64-.17.91.03l3.9,2.9,4.11-4.11-2.9-3.9c-.2-.27-.21-.63-.03-.91,1.19-1.87,2.05-3.94,2.55-6.14.07-.32.34-.57.66-.62l4.8-.71v-5.82l-4.8-.71c-.33-.05-.59-.3-.67-.62-.48-2.18-1.34-4.24-2.55-6.14-.18-.28-.17-.64.03-.91l2.9-3.9-4.11-4.11-3.9,2.9c-.27.2-.63.21-.91.03-1.87-1.19-3.94-2.05-6.14-2.55-.32-.07-.57-.34-.61-.66l-.71-4.8h-5.82l-.71,4.8c-.05.33-.3.59-.62.67-2.18.48-4.24,1.34-6.14,2.55-.28.18-.64.17-.91-.03l-3.9-2.9-4.11,4.11,2.9,3.9c.2.27.21.63.03.91-1.19,1.87-2.05,3.94-2.55,6.14-.07.32-.34.57-.66.61l-4.8.71v5.82l4.8.71c.33.05.59.3.67.62.48,2.18,1.34,4.24,2.55,6.14.18.28.17.64-.03.91l-2.9,3.9,4.11,4.11,3.9-2.9c.27-.2.63-.21.91-.03,1.87,1.19,3.94,2.05,6.14,2.55.32.07.57.34.62.66l.71,4.8ZM38.58,60.98h-7.21c-.4,0-.73-.29-.79-.68l-.73-4.95c-2-.51-3.89-1.29-5.64-2.34l-4.02,2.98c-.32.24-.76.2-1.05-.08l-5.09-5.09c-.28-.28-.31-.73-.08-1.04l2.98-4.02c-1.06-1.76-1.85-3.66-2.34-5.64l-4.95-.73c-.39-.06-.68-.4-.68-.79v-7.21c0-.4.29-.73.68-.79l4.95-.73c.51-2,1.29-3.89,2.34-5.64l-2.98-4.02c-.24-.32-.2-.76.08-1.04l5.09-5.09c.28-.28.73-.31,1.04-.08l4.02,2.98c1.76-1.06,3.66-1.85,5.64-2.34l.73-4.95c.06-.39.4-.68.79-.68h7.21c.4,0,.73.29.79.68l.73,4.95c2,.51,3.89,1.29,5.64,2.34l4.02-2.98c.32-.24.76-.2,1.04.08l5.09,5.09c.28.28.31.73.08,1.05l-2.98,4.02c1.06,1.76,1.85,3.66,2.34,5.64l4.95.73c.39.06.68.4.68.79v7.21c0,.4-.29.74-.68.79l-4.95.73c-.51,2-1.3,3.89-2.34,5.64l2.98,4.02c.24.32.2.76-.08,1.04l-5.09,5.09c-.28.28-.73.31-1.05.08l-4.02-2.98c-1.76,1.06-3.66,1.85-5.64,2.34l-.73,4.95c-.06.39-.4.68-.79.68Z"/>
  <path class="st0" d="M40.73,43.23c-.44,0-.8-.36-.8-.8v-10.07c0-.44.36-.8.8-.8.44,0,.8.36.8.8v10.07c0,.44-.36.8-.8.8Z"/>
  <path class="st0" d="M29.27,43.23c-.44,0-.8-.36-.8-.8v-3.87c0-.44.36-.8.8-.8s.8.36.8.8v3.86c0,.44-.36.8-.8.8Z"/>
  <path class="st0" d="M33.09,43.23c-.44,0-.8-.36-.8-.8v-5.58c0-.44.36-.8.8-.8.44,0,.8.36.8.8v5.58c0,.44-.36.8-.8.8Z"/>
  <path class="st0" d="M36.91,43.23c-.44,0-.8-.36-.8-.8v-7.64c0-.44.36-.8.8-.8.44,0,.8.36.8.8v7.63c0,.44-.36.8-.8.8Z"/>
  <path class="st0" d="M29.27,35.98c-.15,0-.31-.04-.45-.14-.37-.25-.46-.75-.21-1.11l3.64-5.39c.22-.32.63-.44.99-.29l3.48,1.53,3.43-3.56c.31-.32.81-.33,1.13-.02.32.31.33.81.02,1.13l-3.82,3.96c-.23.24-.59.31-.9.18l-3.38-1.48-3.27,4.84c-.15.23-.41.35-.67.35Z"/>
  <path class="st0" d="M42.4,43.23h-14.79c-.44,0-.8-.36-.8-.8s.36-.8.8-.8h14.79c.44,0,.8.36.8.8,0,.44-.36.8-.8.8Z"/>
</svg>