<svg width="70" height="70" viewBox="0 0 70 70" fill="none" xmlns="http://www.w3.org/2000/svg">
<path d="M38.5 12.8332V5.83317C38.5 5.52375 38.377 5.227 38.1583 5.00821C37.9395 4.78942 37.6427 4.6665 37.3333 4.6665H11.6667C11.3572 4.6665 11.0605 4.78942 10.8417 5.00821C10.6229 5.227 10.5 5.52375 10.5 5.83317V12.8332C10.5 13.1426 10.6229 13.4393 10.8417 13.6581C11.0605 13.8769 11.3572 13.9998 11.6667 13.9998H37.3333C37.6427 13.9998 37.9395 13.8769 38.1583 13.6581C38.377 13.4393 38.5 13.1426 38.5 12.8332ZM36.1666 11.6665H12.8333V6.99983H36.1666V11.6665Z" fill="#0FCC7C"/>
<path d="M5.83301 18.6667V32.6666C5.83301 32.9761 5.95592 33.2728 6.17472 33.4916C6.39351 33.7104 6.69025 33.8333 6.99967 33.8333H20.9997C21.3091 33.8333 21.6058 33.7104 21.8246 33.4916C22.0434 33.2728 22.1663 32.9761 22.1663 32.6666V25.949L19.833 28.2823V31.5H8.16634V19.8333H18.384L20.7173 17.5H6.99967C6.69025 17.5 6.39351 17.6229 6.17472 17.8417C5.95592 18.0605 5.83301 18.3572 5.83301 18.6667Z" fill="#0FCC7C"/>
<path d="M23.6751 17.8418L15.1666 26.3503L12.4915 23.6751L10.8418 25.3248L14.3418 28.8248C14.5606 29.0435 14.8573 29.1664 15.1666 29.1664C15.476 29.1664 15.7727 29.0435 15.9915 28.8248L25.3248 19.4915L23.6751 17.8418Z" fill="#0FCC7C"/>
<path d="M5.83301 52.4997C5.83301 52.8091 5.95592 53.1058 6.17472 53.3246C6.39351 53.5434 6.69025 53.6663 6.99967 53.6663H20.9997C21.3091 53.6663 21.6058 53.5434 21.8246 53.3246C22.0434 53.1058 22.1663 52.8091 22.1663 52.4997V45.782L19.833 48.1153V51.333H8.16634V39.6663H18.384L20.7173 37.333H6.99967C6.69025 37.333 6.39351 37.4559 6.17472 37.6747C5.95592 37.8935 5.83301 38.1903 5.83301 38.4997V52.4997Z" fill="#0FCC7C"/>
<path d="M12.4915 43.5086L10.8418 45.1583L14.3418 48.6583C14.5606 48.877 14.8573 48.9999 15.1666 48.9999C15.476 48.9999 15.7727 48.877 15.9915 48.6583L25.3248 39.325L23.6751 37.6753L15.1666 46.1838L12.4915 43.5086Z" fill="#0FCC7C"/>
<path d="M28 25.6665H43.1666V27.9998H28V25.6665Z" fill="#0FCC7C"/>
<path d="M28 19.8335H43.1666V22.1668H28V19.8335Z" fill="#0FCC7C"/>
<path d="M28 39.6665H35V41.9998H28V39.6665Z" fill="#0FCC7C"/>
<path d="M28 45.5H35V47.8333H28V45.5Z" fill="#0FCC7C"/>
<path d="M2.33333 67.6666V2.33333H46.6666V27.2486C47.4537 26.9733 48.2315 26.6727 48.9999 26.3468V1.16666C48.9999 0.857246 48.877 0.5605 48.6582 0.341708C48.4394 0.122916 48.1427 0 47.8333 0H1.16667C0.857246 0 0.5605 0.122916 0.341708 0.341708C0.122916 0.5605 0 0.857246 0 1.16666V68.8332C0 69.1427 0.122916 69.4394 0.341708 69.6582C0.5605 69.877 0.857246 69.9999 1.16667 69.9999H47.8333C47.9561 69.9951 48.0775 69.9707 48.1926 69.9276C47.0914 69.2468 46.0382 68.4913 45.0403 67.6666H2.33333Z" fill="#0FCC7C"/>
<path d="M68.9601 31.5071C63.8008 30.9477 58.7959 29.4077 54.2147 26.9699C54.0459 26.88 53.8576 26.833 53.6663 26.833C53.4751 26.833 53.2868 26.88 53.118 26.9699C48.5367 29.4077 43.5318 30.9477 38.3725 31.5071C38.0868 31.5384 37.8228 31.6741 37.6309 31.8881C37.4391 32.1021 37.333 32.3793 37.333 32.6667V46.4859C37.3652 51.524 38.8918 56.4392 41.7194 60.6091C44.547 64.779 48.5485 68.016 53.2172 69.9102C53.3595 69.9695 53.5121 70.0001 53.6663 70.0001C53.8205 70.0001 53.9732 69.9695 54.1155 69.9102C58.7841 68.016 62.7856 64.779 65.6132 60.6091C68.4409 56.4392 69.9674 51.524 69.9996 46.4859V32.6667C69.9996 32.3793 69.8935 32.1021 69.7017 31.8881C69.5099 31.6741 69.2458 31.5384 68.9601 31.5071ZM67.6663 46.4859C67.6351 50.9801 66.2942 55.3676 63.8076 59.1114C61.321 62.8551 57.7968 65.7925 53.6663 67.564C49.5359 65.7925 46.0116 62.8551 43.525 59.1114C41.0385 55.3676 39.6975 50.9801 39.6663 46.4859V33.6992C44.5494 33.0507 49.2849 31.5685 53.6663 29.3172C58.0477 31.5687 62.7832 33.0509 67.6663 33.6992V46.4859Z" fill="#0FCC7C"/>
<path d="M43.9915 45.8418L42.3418 47.4915L49.3418 54.4914C49.5606 54.7102 49.8573 54.833 50.1666 54.833C50.476 54.833 50.7727 54.7102 50.9915 54.4914L64.9914 40.4915L63.3418 38.8418L50.1666 52.0169L43.9915 45.8418Z" fill="#0FCC7C"/>
<path d="M26.833 61.833H34.9997V64.1663H26.833V61.833Z" fill="#0FCC7C"/>
<path d="M16.333 57.1665H34.9996V59.4998H16.333V57.1665Z" fill="#0FCC7C"/>
</svg>
