<svg width="70" height="67" viewBox="0 0 70 67" fill="none" xmlns="http://www.w3.org/2000/svg">
<path d="M64.5555 40.4446H56V35.0001C56 34.5705 55.6518 34.2223 55.2222 34.2223H52.429C56.911 30.5939 59.3397 24.8896 58.8024 19.1153L57.9374 9.81303C57.9008 9.41901 57.574 9.11521 57.1783 9.10743C48.2254 8.93056 42.1572 1.63283 42.0975 1.55972C41.787 1.17876 41.2029 1.17876 40.8918 1.5591C40.8316 1.63283 34.7632 8.93056 25.8105 9.10743C25.4148 9.11521 25.0881 9.41885 25.0514 9.81303L24.186 19.1153C23.6491 24.8901 26.0781 30.594 30.5599 34.2223C28.4182 34.2223 18.1466 34.2223 15.5557 34.2223C15.1262 34.2223 14.7779 34.5705 14.7779 35.0001V40.4446H11.6668C11.2373 40.4446 10.889 40.7927 10.889 41.2223V46.6668H2.33344C1.90395 46.6668 1.55566 47.0149 1.55566 47.4446V53.6668C1.55566 54.0964 1.90395 54.4446 2.33344 54.4446H10.889V59.1112H7.00011C6.57062 59.1112 6.22233 59.4594 6.22233 59.889V66.1112C6.22233 66.5409 6.57062 66.889 7.00011 66.889H59.889C60.3186 66.889 60.6668 66.5409 60.6668 66.1112V60.6668H64.5557C64.9853 60.6668 65.3334 60.3186 65.3334 59.889V53.6668C65.3334 53.2371 64.9853 52.889 64.5557 52.889H56.0001V48.2223H64.5557C64.9853 48.2223 65.3334 47.8742 65.3334 47.4446V41.2223C65.3333 40.7927 64.9852 40.4446 64.5555 40.4446ZM54.4444 40.4446C52.0538 40.4446 46.5864 40.4446 43.8921 40.4446L50.3289 35.7779H54.4444V40.4446ZM50.5555 46.6668C47.0813 46.6668 42.5309 46.6668 38.8888 46.6668V42.0001H50.5555V46.6668ZM50.5555 59.1112C47.9064 59.1112 41.3441 59.1112 38.8888 59.1112V54.4446H50.5555V59.1112ZM25.6666 59.1112V54.4446H37.3333V59.1112C34.6842 59.1112 28.1219 59.1112 25.6666 59.1112ZM16.3333 48.2223H28V52.889C24.3565 52.889 19.8061 52.889 16.3333 52.889V48.2223ZM25.6666 42.0001H37.3333V46.6668C33.8591 46.6668 29.3086 46.6668 25.6666 46.6668V42.0001ZM29.5555 35.7779H32.6601L39.0967 40.4446C37.0418 40.4446 32.1936 40.4446 29.5555 40.4446V35.7779ZM41.2222 52.889C37.5788 52.889 33.0283 52.889 29.5555 52.889V48.2223H41.2222V52.889ZM25.7348 19.2595L26.537 10.6362C34.271 10.1968 39.7321 5.10048 41.4942 3.22168C43.2564 5.10048 48.7176 10.1966 56.4515 10.6361L57.2534 19.2595C57.7683 24.7929 55.293 30.2571 50.7937 33.5195L41.4944 40.2618L32.1951 33.5195C27.6955 30.2572 25.22 24.7932 25.7348 19.2595ZM16.3333 35.7779H28V40.4446C24.3565 40.4446 19.8061 40.4446 16.3333 40.4446V35.7779ZM12.4444 42.0001H24.1111V46.6668C20.6369 46.6668 16.0864 46.6668 12.4444 46.6668V42.0001ZM3.11106 48.2223H14.7777V52.889C11.1343 52.889 6.58384 52.889 3.11106 52.889V48.2223ZM12.4444 54.4446H24.1111V59.1112C21.462 59.1112 14.8997 59.1112 12.4444 59.1112V54.4446ZM7.77773 60.6668H19.4444V65.3335H7.77773V60.6668ZM21 60.6668H32.6666V65.3335H21V60.6668ZM34.2222 60.6668H45.8888V65.3335H34.2222V60.6668ZM59.1111 65.3335H47.4444V60.6668H59.1111V65.3335ZM63.7777 59.1112C61.1286 59.1112 54.5664 59.1112 52.1111 59.1112V54.4446H63.7777V59.1112ZM54.4444 52.889C50.801 52.889 46.2505 52.889 42.7777 52.889V48.2223H54.4444V52.889ZM63.7777 46.6668C60.3036 46.6668 55.7531 46.6668 52.1111 46.6668V42.0001H63.7777V46.6668Z" fill="#0FCC7C"/>
<path d="M64.1667 23.3333C64.811 23.3333 65.3333 22.811 65.3333 22.1667C65.3333 21.5223 64.811 21 64.1667 21C63.5223 21 63 21.5223 63 22.1667C63 22.811 63.5223 23.3333 64.1667 23.3333Z" fill="#0FCC7C"/>
<path d="M50.944 2.33333C51.5883 2.33333 52.1107 1.811 52.1107 1.16667C52.1107 0.522334 51.5883 0 50.944 0C50.2997 0 49.7773 0.522334 49.7773 1.16667C49.7773 1.811 50.2997 2.33333 50.944 2.33333Z" fill="#0FCC7C"/>
<path d="M25.278 2.33333C25.9223 2.33333 26.4447 1.811 26.4447 1.16667C26.4447 0.522334 25.9223 0 25.278 0C24.6337 0 24.1113 0.522334 24.1113 1.16667C24.1113 1.811 24.6337 2.33333 25.278 2.33333Z" fill="#0FCC7C"/>
<path d="M5.83366 7.77767C6.47799 7.77767 7.00033 7.25533 7.00033 6.611C7.00033 5.96667 6.47799 5.44434 5.83366 5.44434C5.18933 5.44434 4.66699 5.96667 4.66699 6.611C4.66699 7.25533 5.18933 7.77767 5.83366 7.77767Z" fill="#0FCC7C"/>
<path d="M19.8337 20.222C20.478 20.222 21.0003 19.6997 21.0003 19.0553C21.0003 18.411 20.478 17.8887 19.8337 17.8887C19.1893 17.8887 18.667 18.411 18.667 19.0553C18.667 19.6997 19.1893 20.222 19.8337 20.222Z" fill="#0FCC7C"/>
<path d="M1.16667 41.2225C1.811 41.2225 2.33333 40.7002 2.33333 40.0558C2.33333 39.4115 1.811 38.8892 1.16667 38.8892C0.522334 38.8892 0 39.4115 0 40.0558C0 40.7002 0.522334 41.2225 1.16667 41.2225Z" fill="#0FCC7C"/>
<path d="M2.72233 62.9998C3.36666 62.9998 3.889 62.4775 3.889 61.8332C3.889 61.1888 3.36666 60.6665 2.72233 60.6665C2.078 60.6665 1.55566 61.1888 1.55566 61.8332C1.55566 62.4775 2.078 62.9998 2.72233 62.9998Z" fill="#0FCC7C"/>
<path d="M60.278 36.5555C60.9223 36.5555 61.4447 36.0332 61.4447 35.3888C61.4447 34.7445 60.9223 34.2222 60.278 34.2222C59.6337 34.2222 59.1113 34.7445 59.1113 35.3888C59.1113 36.0332 59.6337 36.5555 60.278 36.5555Z" fill="#0FCC7C"/>
<path d="M41.0381 37.4648C41.3097 37.6618 41.6782 37.6626 41.951 37.4648L49.3671 32.0878C53.1772 29.3255 55.2731 24.6985 54.8372 20.0127L54.1797 12.9416C54.1432 12.5476 53.8163 12.2438 53.4206 12.236C46.7054 12.1033 42.1422 6.62167 42.0976 6.56707C41.7886 6.18782 41.2047 6.1844 40.892 6.56629C40.8467 6.62167 36.2834 12.1033 29.5685 12.236C29.1728 12.2438 28.8461 12.5474 28.8094 12.9416L28.1515 20.0128C27.7157 24.6988 29.8118 29.3258 33.622 32.088L41.0381 37.4648ZM29.7004 20.1567L30.2956 13.7606C35.9673 13.3753 40.0215 9.74958 41.4946 8.21844C42.9677 9.74958 47.0217 13.3753 52.6937 13.7606L53.2885 20.1567C53.6738 24.2979 51.8213 28.3872 48.4543 30.8284L41.4948 35.8744L34.5352 30.8283C31.1676 28.3872 29.3151 24.2981 29.7004 20.1567Z" fill="#0FCC7C"/>
<path d="M51.4608 21.8892C51.6137 21.6397 51.6137 21.3258 51.4608 21.0763C46.9444 13.7067 36.2673 13.7229 31.7611 21.0763C31.6083 21.3258 31.6083 21.6397 31.7611 21.8891C36.2773 29.2588 46.9543 29.2428 51.4608 21.8892ZM33.3497 21.4828C37.3097 15.654 45.911 15.6526 49.8721 21.4828C45.9119 27.3121 37.3103 27.313 33.3497 21.4828Z" fill="#0FCC7C"/>
<path d="M44.3331 21.3892C44.3331 19.8883 43.1118 18.667 41.6109 18.667C40.1099 18.667 38.8887 19.8883 38.8887 21.3892C38.8887 22.8902 40.1099 24.1114 41.6109 24.1114C43.1118 24.1114 44.3331 22.8902 44.3331 21.3892ZM40.4442 21.3892C40.4442 20.7458 40.9675 20.2225 41.6109 20.2225C42.2543 20.2225 42.7776 20.7458 42.7776 21.3892C42.7776 22.0326 42.2543 22.5559 41.6109 22.5559C40.9675 22.5559 40.4442 22.0326 40.4442 21.3892Z" fill="#0FCC7C"/>
<path d="M6.99957 32.6671C10.4305 32.6671 13.2218 29.8758 13.2218 26.4449C13.2218 23.0139 10.4305 20.2227 6.99957 20.2227C3.56863 20.2227 0.777344 23.0139 0.777344 26.4449C0.777344 29.8758 3.56863 32.6671 6.99957 32.6671ZM6.99957 21.7782C9.57277 21.7782 11.6662 23.8717 11.6662 26.4449C11.6662 29.0181 9.57277 31.1115 6.99957 31.1115C4.42637 31.1115 2.3329 29.0181 2.3329 26.4449C2.3329 23.8717 4.42637 21.7782 6.99957 21.7782Z" fill="#0FCC7C"/>
<path d="M65.3337 3.88916C62.7605 3.88916 60.667 5.98263 60.667 8.55583C60.667 11.129 62.7605 13.2225 65.3337 13.2225C67.9069 13.2225 70.0003 11.129 70.0003 8.55583C70.0003 5.98263 67.9069 3.88916 65.3337 3.88916ZM65.3337 11.6669C63.6182 11.6669 62.2225 10.2713 62.2225 8.55583C62.2225 6.84036 63.6182 5.44472 65.3337 5.44472C67.0491 5.44472 68.4448 6.84036 68.4448 8.55583C68.4448 10.2713 67.0491 11.6669 65.3337 11.6669Z" fill="#0FCC7C"/>
</svg>
