<svg width="70" height="65" viewBox="0 0 70 65" fill="none" xmlns="http://www.w3.org/2000/svg">
<path d="M35 21.8082C46.834 21.8082 56.4274 31.4771 56.4275 43.4041C56.4275 55.3312 46.8341 65 35 65C23.1659 65 13.5725 55.3312 13.5725 43.4041C13.5726 31.4771 23.166 21.8082 35 21.8082ZM31.1787 38.7272L22.4387 40.0063L28.763 46.2203L27.2703 54.9935L35.0881 50.8514L42.9051 54.9935L41.4115 46.2203L47.7366 40.0063L38.9957 38.7272L35.0881 30.745L31.1787 38.7272ZM69.0463 1.47919L53.3447 25.824L52.6851 26.846L51.8566 25.9587C48.2806 22.1331 43.4929 19.4759 38.1134 18.6076L36.6708 18.3748L37.4668 17.1406L48.2413 0.435714L48.5224 0H70L69.0463 1.47919ZM21.7587 0.435714L32.4126 16.9573L33.2577 18.2682L31.715 18.4309C26.2319 19.0093 21.2935 21.4368 17.5237 25.0844L16.6952 25.8857L16.069 24.9152L0.953694 1.47919L0 0H21.4776L21.7587 0.435714ZM38.2637 17.6623C43.8568 18.5651 48.8325 21.3278 52.5478 25.3023L68.2494 0.95745H49.0382L38.2637 17.6623ZM16.8659 24.3935C20.7827 20.6037 25.9153 18.0804 31.6157 17.4791L20.9618 0.95745H1.7506L16.8659 24.3935Z" fill="#0FCC7C"/>
</svg>
