<svg width="70" height="70" viewBox="0 0 70 70" fill="none" xmlns="http://www.w3.org/2000/svg">
<path d="M68.8542 32.5347C69.4865 32.5347 70 33.046 70 33.676C70 34.3058 69.4865 34.8173 68.8542 34.8173H58.2256V45.4035C58.2256 46.0339 57.7125 46.5448 57.0798 46.5448H46.4512V57.1311C46.4512 57.7613 45.9381 58.2724 45.3054 58.2724H34.6768V68.8587C34.6768 69.489 34.1639 70 33.531 70H21.7567C21.1243 70 20.6109 69.4885 20.6109 68.8587C20.6109 68.2288 21.1242 67.7175 21.7567 67.7175H32.3852V57.1311C32.3852 56.5009 32.8982 55.9899 33.531 55.9898H44.1596V45.4035C44.1596 44.7732 44.6726 44.2623 45.3054 44.2622H55.934V33.676C55.934 33.0456 56.447 32.5348 57.0798 32.5347H68.8542ZM21.1623 50.8898C17.4097 56.6867 15.0148 63.1004 14.1446 69.617C10.6991 62.3349 9.72581 54.3477 10.9361 46.5424L21.1623 50.8898ZM11.28 47.1538C10.2765 54.2351 11.0907 61.4439 13.9375 68.1102C14.9339 62.1895 17.1727 56.388 20.5277 51.0854L11.28 47.1538ZM30.5194 0.570586C30.8357 0.0252318 31.537 -0.162058 32.0847 0.152922L36.2362 2.54035C36.7843 2.8555 36.972 3.55349 36.6557 4.09928L33.9539 8.76004C33.6378 9.30555 32.9365 9.49269 32.3888 9.17771C31.8411 8.86271 31.6532 8.1643 31.9695 7.61878L33.2203 5.46066C11.2435 13.5391 -1.58836 35.1336 3.33805 55.4286C3.48658 56.0408 3.10822 56.6581 2.49366 56.8061C1.87893 56.9542 1.25915 56.5772 1.11062 55.9649C-4.09879 34.5036 9.44501 11.5838 32.7825 3.18998L30.9389 2.12965C30.3912 1.81465 30.2033 1.1161 30.5194 0.570586ZM27.9309 42.5794C25.9018 44.5862 24.0744 46.7323 22.46 48.9855C22.3968 48.9418 22.3284 48.9038 22.2551 48.8726L11.4593 44.2831C11.4254 44.2686 11.391 44.2559 11.3567 44.2451C12.2789 39.8728 13.8852 35.5859 16.1239 31.5431L27.9309 42.5794ZM36.4173 35.8031C33.96 37.3756 31.6828 39.1198 29.5959 41.0055L17.3088 29.5207C19.7562 25.5693 22.8258 21.8882 26.4659 18.6351L36.4173 35.8031ZM26.36 19.3085C23.0123 22.3639 20.165 25.7873 17.8599 29.4489L29.602 40.4244C31.5271 38.7117 33.6093 37.1176 35.8412 35.665L26.36 19.3085ZM46.1818 30.895C43.5984 31.8712 41.0505 33.0704 38.5667 34.4987C38.502 34.536 38.4373 34.5734 38.3726 34.6109L28.2362 17.1239C30.3913 15.367 32.7258 13.7542 35.23 12.3142C36.95 11.325 38.701 10.4457 40.4731 9.67436L46.1818 30.895ZM58.53 27.9194C55.1314 28.2942 51.7168 29.027 48.3485 30.1309L42.6102 8.79975C47.8465 6.79186 53.2328 5.7027 58.53 5.48114V27.9194ZM58.1003 5.92959C53.1159 6.18426 48.057 7.21388 43.1256 9.06236L48.6466 29.5849C51.7764 28.5895 54.9439 27.9105 58.1003 27.5378V5.92959Z" fill="#0FCC7C"/>
</svg>
