<svg width="40" height="40" viewBox="0 0 40 40" fill="none" xmlns="http://www.w3.org/2000/svg">
<path d="M11.6387 0.129915C15.1409 -0.362312 18.6952 0.556062 21.5199 2.68297C24.3446 4.8099 26.2082 7.9712 26.7007 11.4714C26.8803 12.7476 26.8719 14.0307 26.686 15.2829C27.2579 15.2395 27.8327 15.236 28.4063 15.2728C31.2949 15.4771 34.0227 16.6789 36.1223 18.6723C38.2219 20.6656 39.5627 23.3265 39.9151 26.1992C40.2215 28.7889 39.6937 31.4088 38.4085 33.6783C38.2799 33.8932 38.2326 34.1472 38.2752 34.394L38.8933 37.3226C38.9607 37.6425 38.9445 37.9744 38.8463 38.2863C38.7481 38.5981 38.5712 38.8794 38.3327 39.1031C38.0941 39.3268 37.802 39.4853 37.4843 39.5634C37.1667 39.6414 36.8343 39.6365 36.5192 39.5489L33.5984 38.7379C33.3595 38.6808 33.1081 38.7102 32.8888 38.8208C31.2406 39.5984 29.4404 40.0012 27.6177 40C26.9894 39.9999 26.362 39.9527 25.7407 39.8591C23.0843 39.4598 20.6309 38.2046 18.7535 36.2843C16.8761 34.364 15.6773 31.8836 15.3394 29.2202C15.2274 28.3278 15.2107 27.4273 15.2887 26.534C14.6432 26.6273 13.9918 26.6746 13.3396 26.6751C11.3521 26.6779 9.38925 26.2345 7.59608 25.3778C7.37631 25.2655 7.12344 25.2361 6.88375 25.295L3.54297 26.222C3.2278 26.3095 2.89541 26.3143 2.57781 26.2361C2.2602 26.1579 1.96809 25.9993 1.72964 25.7755C1.4912 25.5517 1.31442 25.2704 1.21637 24.9585C1.11831 24.6466 1.10228 24.3147 1.16981 23.9948L1.87647 20.6379C1.92079 20.393 1.87363 20.1404 1.74403 19.9279C0.332284 17.4548 -0.24568 14.5932 0.0955665 11.7664C0.45982 8.82356 1.7907 6.0846 3.87961 3.9788C5.96851 1.87301 8.69744 0.519328 11.6387 0.129915ZM28.2844 17.1745C27.6024 17.1301 26.9183 17.153 26.242 17.2425C25.7913 18.7081 25.087 20.0988 24.1462 21.3469C22.4108 23.6489 19.9872 25.3121 17.2527 26.1146C17.1175 27.0649 17.1096 28.0299 17.2298 28.9841C17.4432 30.6186 18.04 32.1796 18.9714 33.5399C19.9028 34.9003 21.1426 36.0214 22.5898 36.8121C24.0369 37.6028 25.6506 38.0408 27.2991 38.0901C28.9477 38.1395 30.5846 37.7989 32.0765 37.0961C32.7092 36.7913 33.4304 36.7237 34.1088 36.9057L37.0286 37.7158L36.4115 34.7871C36.2726 34.0881 36.3928 33.3625 36.7496 32.7455C37.8359 30.8248 38.2822 28.6083 38.0238 26.4172C37.7253 23.9866 36.5905 21.7353 34.8137 20.0491C33.0368 18.3628 30.7286 17.3466 28.2844 17.1745ZM27.6225 21.9586C27.7943 21.9586 27.9632 22.0033 28.1126 22.0881C28.262 22.1729 28.3868 22.295 28.4748 22.4425L31.7543 28.9977C31.813 29.0798 31.8584 29.1703 31.8885 29.2662L33.2365 31.9603C33.3092 32.1058 33.3434 32.2675 33.3359 32.43C33.3283 32.5924 33.2792 32.7503 33.1932 32.8884C33.1073 33.0265 32.9873 33.1404 32.8448 33.219C32.7023 33.2976 32.5421 33.3384 32.3793 33.3375C32.2016 33.3385 32.0271 33.2897 31.8756 33.1967C31.7242 33.1037 31.6017 32.9701 31.5223 32.8112L30.3748 30.5145L24.8093 30.6172L23.7132 32.8112C23.6003 33.0371 23.4022 33.2089 23.1625 33.2889C22.9228 33.3688 22.6612 33.3504 22.4352 33.2376C22.2091 33.1247 22.0372 32.9268 21.9571 32.6873C21.8771 32.4478 21.8957 32.1862 22.0086 31.9603L26.7702 22.4425C26.8582 22.295 26.983 22.1729 27.1324 22.0881C27.2818 22.0033 27.4507 21.9586 27.6225 21.9586ZM25.7696 28.6951L29.432 28.6276L27.6177 24.9961L25.7696 28.6951ZM17.1038 2.56847C15.4263 1.98301 13.6352 1.79656 11.873 2.02395C10.0127 2.26179 8.23957 2.95396 6.71042 4.03919C5.18129 5.12441 3.94316 6.56934 3.10538 8.2463C2.26759 9.92327 1.85598 11.7807 1.90689 13.6543C1.95781 15.528 2.46965 17.3604 3.39728 18.9895C3.75681 19.6065 3.87805 20.3337 3.73819 21.0339L3.03354 24.3908L6.37327 23.4637C6.61557 23.3951 6.86617 23.3608 7.11803 23.36C7.56833 23.3622 8.01246 23.4649 8.41791 23.6607C10.0218 24.425 11.782 24.8051 13.5585 24.7705C14.3987 24.7542 15.2315 24.6452 16.0425 24.4476C16.1032 24.4211 16.1667 24.4009 16.2319 24.3875C16.2662 24.3804 16.3008 24.3754 16.3355 24.3722C17.1359 24.1547 17.9128 23.85 18.652 23.4618C20.225 22.6358 21.5835 21.4545 22.6198 20.0118C23.4086 18.9136 23.9938 17.6868 24.3519 16.39C24.3542 16.3432 24.36 16.2966 24.3692 16.2505C24.3853 16.1701 24.4118 16.0923 24.4478 16.0189C24.5166 15.7326 24.5747 15.4432 24.6213 15.1513C24.9014 13.3976 24.7684 11.6028 24.2329 9.9095C23.6975 8.2162 22.7743 6.67104 21.5367 5.39671C20.2992 4.12238 18.7814 3.15394 17.1038 2.56847ZM12.2182 7.74926C13.3266 7.52892 14.4755 7.64198 15.5195 8.0742C16.5636 8.50643 17.456 9.23843 18.0838 10.1775C18.7117 11.1166 19.0468 12.2207 19.0468 13.3501C19.0454 14.7711 18.5146 16.137 17.5639 17.1847L18.7679 18.3879C18.901 18.521 18.9917 18.6906 19.0284 18.8752C19.0651 19.0598 19.0462 19.2512 18.9742 19.4251C18.9021 19.5989 18.7801 19.7475 18.6235 19.8521C18.4669 19.9567 18.2829 20.0126 18.0945 20.0126C17.842 20.0126 17.5998 19.9122 17.4213 19.7337L16.0553 18.3685C15.2269 18.8178 14.2924 19.0599 13.3329 19.0608C12.2028 19.0608 11.098 18.726 10.1584 18.0985C9.21871 17.471 8.48638 16.5791 8.0539 15.5356C7.62143 14.4921 7.50822 13.3438 7.72869 12.2361C7.94916 11.1283 8.49338 10.1107 9.29249 9.31208C10.0916 8.51344 11.1098 7.96961 12.2182 7.74926ZM13.3329 9.54309C12.5795 9.54309 11.843 9.76636 11.2166 10.1847C10.5901 10.603 10.1018 11.1976 9.81353 11.8933C9.52522 12.5889 9.4498 13.3544 9.59678 14.0929C9.74376 14.8314 10.1066 15.5098 10.6393 16.0422C11.172 16.5746 11.8508 16.9373 12.5898 17.0842C13.2686 17.2191 13.9701 17.1663 14.6193 16.9334L13.612 15.9266C13.4385 15.7471 13.3426 15.5067 13.3447 15.2572C13.3469 15.0076 13.447 14.7689 13.6235 14.5924C13.8001 14.4159 14.039 14.3158 14.2887 14.3136C14.5384 14.3115 14.779 14.4074 14.9586 14.5808L16.2163 15.8378C16.318 15.7199 16.4131 15.5957 16.5002 15.4653C16.9188 14.8393 17.1422 14.1031 17.1422 13.3501C17.1422 12.3404 16.7408 11.3721 16.0264 10.6581C15.3121 9.94415 14.3431 9.54309 13.3329 9.54309Z" fill="black"/>
</svg>
