<svg width="38" height="45" viewBox="0 0 38 45" fill="none" xmlns="http://www.w3.org/2000/svg">
<path d="M37.4522 39.7567C37.4515 39.1609 37.2146 38.5897 36.7933 38.1685C36.372 37.7472 35.8008 37.5102 35.205 37.5096H28.6662L35.5249 33.5086C36.3182 33.0458 36.9139 32.3076 37.1985 31.4344C37.4832 30.5611 37.437 29.6138 37.0689 28.7723L33.8767 21.4768C33.5263 20.6761 32.9502 19.995 32.2187 19.5166C31.4873 19.0383 30.6323 18.7835 29.7583 18.7835H28.3685L29.5214 17.1984C30.1381 16.3537 30.4705 15.3349 30.4705 14.2891C30.4705 13.2432 30.1381 12.2244 29.5214 11.3797L22.7259 2.03719C22.2671 1.4062 21.6656 0.892695 20.9704 0.538633C20.2753 0.184571 19.5062 0 18.7261 0C17.946 0 17.1769 0.184571 16.4818 0.538633C15.7866 0.892695 15.1851 1.4062 14.7263 2.03719L7.93081 11.3801C7.31407 12.2248 6.98171 13.2436 6.98171 14.2894C6.98171 15.3353 7.31407 16.3541 7.93081 17.1987L9.08354 18.7835H7.69326C6.81941 18.7835 5.96452 19.0382 5.23319 19.5165C4.50186 19.9948 3.92581 20.6759 3.57554 21.4765L0.38337 28.7722C0.0152007 29.6137 -0.0309226 30.5611 0.253768 31.4344C0.538458 32.3077 1.13411 33.0459 1.92749 33.5087L8.78601 37.5096H2.24715C1.71756 37.5082 1.20461 37.6945 0.799212 38.0352C0.393817 38.376 0.122171 38.8493 0.0324247 39.3712C-0.0573213 39.8932 0.0406305 40.43 0.308917 40.8866C0.577203 41.3432 0.998494 41.6901 1.49811 41.8658V42.7529C1.49811 43.3488 1.73486 43.9204 2.15628 44.3418C2.5777 44.7632 3.14926 45 3.74524 45H33.707C34.3029 45 34.8745 44.7632 35.2959 44.3418C35.7173 43.9204 35.9541 43.3488 35.9541 42.7529V41.8658C36.391 41.7119 36.7695 41.4266 37.0378 41.0489C37.306 40.6713 37.4507 40.2199 37.4522 39.7567ZM10.0262 13.8686C11.0137 18.4073 14.5327 21.7797 18.7261 21.7797C22.9195 21.7797 26.4385 18.4073 27.426 13.8686C27.9456 14.1144 28.4512 14.3888 28.9405 14.6906C28.8738 15.278 28.6567 15.8383 28.31 16.3173L22.7028 24.0268H14.7496L9.14215 16.3176C8.79554 15.8385 8.57841 15.2781 8.51174 14.6905C9.00098 14.3888 9.50657 14.1144 10.0262 13.8686ZM11.4345 13.2891C16.1534 11.6264 21.2988 11.6264 26.0177 13.2892C25.2586 17.286 22.2832 20.2816 18.7261 20.2816C15.169 20.2816 12.1936 17.286 11.4345 13.2891ZM28.2157 25.5249C28.3236 25.5255 28.43 25.5492 28.5279 25.5945C28.6257 25.6398 28.7127 25.7056 28.7829 25.7875C28.8531 25.8693 28.9049 25.9653 28.9347 26.0689C28.9646 26.1726 28.9718 26.2814 28.956 26.388L27.6883 34.6271C27.6618 34.8043 27.5724 34.966 27.4365 35.0827C27.3005 35.1993 27.1271 35.2632 26.948 35.2624H10.5042C10.3251 35.2632 10.1518 35.1994 10.0158 35.0828C9.8799 34.9662 9.79048 34.8046 9.76392 34.6275L8.49625 26.3877C8.48043 26.281 8.48772 26.1723 8.51761 26.0687C8.5475 25.9651 8.59929 25.8692 8.66949 25.7873C8.73968 25.7055 8.82664 25.6398 8.92447 25.5945C9.02229 25.5492 9.12871 25.5255 9.23651 25.5249H28.2157ZM11.2357 36.7605H26.2173V37.5096H11.2357V36.7605ZM29.7591 20.2816C30.3417 20.2816 30.9117 20.4514 31.3992 20.7703C31.8868 21.0891 32.2708 21.5432 32.5044 22.0769L35.6966 29.3729C35.9175 29.8778 35.9451 30.4463 35.7742 30.9702C35.6033 31.4942 35.2459 31.937 34.7698 32.2147L28.8888 35.6453C29.0306 35.4016 29.1256 35.1336 29.1688 34.855L30.4365 26.6159C30.4834 26.2961 30.4611 25.9699 30.3713 25.6593C30.2814 25.3488 30.126 25.0612 29.9155 24.8158C29.7051 24.5704 29.4444 24.373 29.1512 24.2369C28.858 24.1008 28.539 24.0292 28.2157 24.0268H24.555L27.2789 20.2816H29.7591ZM15.9377 2.91827C16.2576 2.47846 16.6769 2.12019 17.1616 1.87343C17.6462 1.62667 18.1824 1.49805 18.7262 1.49809C19.27 1.49812 19.8062 1.62681 20.2908 1.87363C20.7754 2.12046 21.1947 2.47842 21.5145 2.91827L28.31 12.2608C28.4335 12.4334 28.5408 12.617 28.6306 12.8093C25.5537 11.2844 22.16 10.5083 18.7261 10.544C15.2923 10.5082 11.8986 11.2844 8.82171 12.8092C8.91151 12.6171 9.01877 12.4337 9.14215 12.2612L15.9377 2.91827ZM1.75578 29.3725L4.94758 22.0772C5.18112 21.5434 5.5652 21.0892 6.05282 20.7703C6.54043 20.4514 7.11044 20.2816 7.69308 20.2816H10.1732L12.8974 24.0268H9.23651C8.91328 24.0292 8.59432 24.1008 8.30112 24.2369C8.00791 24.3729 7.7473 24.5703 7.53683 24.8156C7.32637 25.0609 7.17095 25.3485 7.08106 25.659C6.99116 25.9695 6.96888 26.2957 7.01572 26.6155L8.28338 34.8553C8.32668 35.1338 8.4216 35.4016 8.56327 35.6452L2.68238 32.2147C2.20631 31.9369 1.84887 31.494 1.67803 30.97C1.5072 30.4459 1.53486 29.8774 1.75578 29.3725ZM34.456 42.7529C34.4558 42.9515 34.3768 43.1419 34.2364 43.2823C34.096 43.4227 33.9056 43.5017 33.707 43.5019H3.74524C3.54664 43.5017 3.35623 43.4227 3.21581 43.2823C3.07538 43.1419 2.99639 42.9515 2.9962 42.7529V42.0038H34.456V42.7529ZM35.205 40.5057H2.24715C2.0485 40.5057 1.85797 40.4268 1.7175 40.2864C1.57703 40.1459 1.49811 39.9554 1.49811 39.7567C1.49811 39.558 1.57703 39.3675 1.7175 39.227C1.85797 39.0866 2.0485 39.0077 2.24715 39.0077H35.205C35.4037 39.0077 35.5942 39.0866 35.7347 39.227C35.8752 39.3675 35.9541 39.558 35.9541 39.7567C35.9541 39.9554 35.8752 40.1459 35.7347 40.2864C35.5942 40.4268 35.4037 40.5057 35.205 40.5057ZM18.7261 32.2663C19.1705 32.2663 19.605 32.1345 19.9745 31.8876C20.3441 31.6406 20.6321 31.2897 20.8022 30.8791C20.9723 30.4685 21.0168 30.0166 20.93 29.5807C20.8433 29.1448 20.6293 28.7444 20.3151 28.4302C20.0008 28.1159 19.6004 27.9019 19.1645 27.8152C18.7286 27.7285 18.2768 27.773 17.8662 27.9431C17.4556 28.1131 17.1046 28.4012 16.8577 28.7707C16.6108 29.1402 16.479 29.5747 16.479 30.0191C16.4796 30.6149 16.7166 31.1861 17.1379 31.6074C17.5591 32.0287 18.1303 32.2656 18.7261 32.2663ZM18.7261 29.2701C18.8742 29.2701 19.0191 29.314 19.1422 29.3963C19.2654 29.4786 19.3614 29.5956 19.4181 29.7325C19.4748 29.8694 19.4897 30.02 19.4607 30.1653C19.4318 30.3106 19.3605 30.444 19.2558 30.5488C19.151 30.6536 19.0175 30.7249 18.8722 30.7538C18.7269 30.7827 18.5763 30.7679 18.4395 30.7112C18.3026 30.6545 18.1856 30.5585 18.1033 30.4353C18.021 30.3121 17.9771 30.1673 17.9771 30.0191C17.9773 29.8205 18.0562 29.6301 18.1967 29.4897C18.3371 29.3493 18.5275 29.2703 18.7261 29.2701Z" fill="#0E91D6"/>
</svg>
