<svg width="70" height="63" viewBox="0 0 70 63" fill="none" xmlns="http://www.w3.org/2000/svg">
<path d="M17.8804 54.2159V46.4708V40.4258C17.8804 40.3313 17.8804 40.1424 17.8804 40.048L8.55978 49.3043C7.98913 49.8711 6.75271 51.0989 6.75271 51.0989V54.2159V62.9055H17.9755V54.2159H17.8804ZM14.6467 54.2159V59.7886H9.7962V54.2159V52.4213C10.1766 52.138 10.462 51.7601 10.7473 51.5712L14.6467 47.6987V54.2159ZM30.0543 51.6657L27.6766 49.3043L22.1603 43.9206C22.1603 43.9206 22.1603 45.054 22.1603 45.5262V46.5652V59.3163V63H33.3831V59.3163V54.7826C33.3831 54.7826 31.5761 53.0825 30.8152 52.4213L30.0543 51.6657ZM30.1495 59.2219V59.6942H25.2989V59.2219V51.3823L25.4891 51.5712L27.8669 53.9325L28.5326 54.5937C28.913 54.9715 29.5788 55.6327 30.1495 56.105V59.2219ZM48.6957 46.4708V45.4318C48.6957 44.6762 48.6957 42.976 48.6957 42.976L39.7554 51.6657L39.0897 52.3269C38.6141 52.7991 37.4728 53.8381 37.4728 53.8381V59.2219V62.9055H48.6957V59.2219V46.4708ZM45.5571 59.2219V59.6942H40.7065V59.2219V55.2549C40.9919 54.9715 41.1821 54.7826 41.3723 54.5937L42.038 53.9325L45.5571 50.5323V59.2219ZM54.5924 37.0255L53.6413 37.97L52.9755 38.6312V40.4258V41.6537V46.4708V47.6987V54.1214V62.8111H64.1984V54.1214V47.6987V46.4708V41.6537V40.4258V34.003V27.958C64.1984 27.8636 64.1984 27.7691 64.1984 27.5802L54.5924 37.0255ZM60.9647 40.4258V41.6537V46.4708V47.6987V54.1214V59.6942H56.1141V54.1214V47.6987V46.4708V41.6537V40.4258V39.9535L56.7799 39.2923L60.9647 35.1364V40.4258ZM37.1875 0V3.58921H41.6576V6.70615H33.8587C32.6223 6.70615 31.5761 7.74513 31.5761 8.97301C31.5761 10.2009 32.6223 11.2399 33.8587 11.2399H37.3777C40.4212 11.2399 42.894 13.6957 42.894 16.7181C42.894 19.7406 40.4212 22.1964 37.3777 22.1964H37.1875V26.2579H34.0489V22.1964H29.4837V19.0795H37.4728C38.7092 19.0795 39.7554 18.0405 39.7554 16.8126C39.7554 15.5847 38.7092 14.5457 37.4728 14.5457H33.9538C30.9103 14.5457 28.4375 12.09 28.4375 9.06747C28.4375 6.04498 30.9103 3.58921 33.9538 3.58921H34.144V0H37.1875ZM64.2935 6.32833C61.1549 6.32833 58.6821 8.87857 58.6821 11.9011C58.6821 12.8456 58.9674 13.7901 59.3478 14.5457L37.5679 36.1754C36.8071 35.7032 35.856 35.5142 34.9049 35.5142C33.9538 35.5142 33.0027 35.7976 32.2418 36.1754L23.587 27.5802C23.9674 26.8246 24.2527 25.9745 24.2527 25.03C24.2527 21.913 21.6848 19.4573 18.6413 19.4573C15.5027 19.4573 13.0299 22.0075 13.0299 25.03C13.0299 25.9745 13.3152 26.8246 13.6956 27.6747L8.27445 33.0585C7.51358 32.5862 6.56249 32.3973 5.61141 32.3973C2.47282 32.3973 0 34.9475 0 37.97C0 41.087 2.56793 43.5427 5.61141 43.5427C8.74999 43.5427 11.2228 40.9925 11.2228 37.97C11.2228 37.0255 10.9375 36.081 10.5571 35.3253L15.8832 30.036C16.7391 30.5083 17.6902 30.7916 18.6413 30.7916C19.6875 30.7916 20.6386 30.5083 21.4946 30.036L30.0543 38.5367C29.5788 39.2924 29.3886 40.2369 29.3886 41.1814C29.3886 44.2983 31.9565 46.7541 35 46.7541C38.0435 46.7541 40.6114 44.2039 40.6114 41.1814C40.6114 40.2369 40.3261 39.2924 39.9457 38.5367L61.7255 16.9071C62.4864 17.3793 63.4375 17.5682 64.3886 17.5682C67.5272 17.5682 70 15.018 70 11.9955C70 8.87856 67.4321 6.32833 64.2935 6.32833ZM5.51631 40.4258C4.18479 40.4258 3.04348 39.2924 3.04348 37.97C3.04348 36.6477 4.18479 35.5142 5.51631 35.5142C6.84783 35.5142 7.98912 36.6477 7.98912 37.97C7.89402 39.3868 6.84783 40.4258 5.51631 40.4258ZM18.5462 27.5802C17.2147 27.5802 16.0734 26.4468 16.0734 25.1244C16.0734 23.8021 17.2147 22.6687 18.5462 22.6687C19.8777 22.6687 21.019 23.8021 21.019 25.1244C21.019 26.4468 19.8777 27.5802 18.5462 27.5802ZM34.9049 43.6372C33.5734 43.6372 32.4321 42.5037 32.4321 41.1814C32.4321 39.8591 33.5734 38.7257 34.9049 38.7257C36.2364 38.7257 37.3777 39.8591 37.3777 41.1814C37.3777 42.5982 36.2364 43.6372 34.9049 43.6372ZM64.2935 14.4513C62.962 14.4513 61.8207 13.3178 61.8207 11.9955C61.8207 10.6732 62.962 9.53974 64.2935 9.53974C65.625 9.53974 66.7663 10.6732 66.7663 11.9955C66.7663 13.3178 65.7201 14.4513 64.2935 14.4513Z" fill="#0FCC7C"/>
</svg>
