<svg width="65" height="70" viewBox="0 0 65 70" fill="none" xmlns="http://www.w3.org/2000/svg">
<path fill-rule="evenodd" clip-rule="evenodd" d="M12.3895 54.4901C12.3895 55.1669 12.1143 55.7856 11.6636 56.23C11.2165 56.6743 10.5973 56.9512 9.91273 56.9512C9.2282 56.9512 8.60899 56.6777 8.16182 56.23C7.71464 55.7856 7.436 55.1704 7.436 54.4901C7.436 53.8099 7.71464 53.1947 8.16182 52.7503C8.609 52.306 9.22815 52.0291 9.91273 52.0291C10.5973 52.0291 11.2165 52.3026 11.6636 52.7503C12.1143 53.1947 12.3895 53.8099 12.3895 54.4901ZM3.98582 63.5109V62.8409C3.98582 61.2207 4.65315 59.7475 5.72643 58.6811C6.29745 58.1137 6.98543 57.6591 7.7491 57.3583C7.6115 57.2558 7.48423 57.143 7.36383 57.0233C6.71025 56.3739 6.3078 55.4784 6.3078 54.4906C6.3078 53.4993 6.71027 52.6038 7.36383 51.9578C8.01741 51.3083 8.91863 50.9084 9.91275 50.9084C10.9103 50.9084 11.8115 51.3118 12.4617 51.9578C13.1152 52.6038 13.5177 53.5027 13.5177 54.4906C13.5177 55.4818 13.1152 56.3773 12.4617 57.0233C12.3413 57.143 12.2106 57.2558 12.0764 57.3583C12.8401 57.6591 13.528 58.1103 14.0991 58.6811C15.1724 59.7476 15.8397 61.2207 15.8397 62.8409V63.5109C16.0186 63.3571 16.194 63.1998 16.3591 63.0323C18.0102 61.3916 19.0319 59.1255 19.0319 56.6234C19.0319 54.1213 18.0102 51.8552 16.3591 50.2145C14.708 48.5738 12.4274 47.5621 9.90935 47.5621C7.39134 47.5621 5.11074 48.5773 3.4596 50.2145C1.80846 51.8552 0.786779 54.1213 0.786779 56.6234C0.786779 59.1255 1.80846 61.3916 3.4596 63.0323C3.63503 63.1998 3.80694 63.357 3.98582 63.5109ZM14.7151 64.3346V62.8409C14.7151 61.5318 14.1751 60.3389 13.3048 59.4741C12.4345 58.6093 11.2374 58.0726 9.91645 58.0726C8.59897 58.0726 7.39844 58.6093 6.52813 59.4741C5.65784 60.3354 5.11775 61.5284 5.11775 62.8409V64.3346C6.51087 65.1926 8.15514 65.6882 9.91293 65.6882C11.6741 65.6882 13.322 65.1926 14.7151 64.3346ZM56.8329 8.75955C56.3857 8.3152 55.7665 8.03833 55.082 8.03833C54.3974 8.03833 53.7782 8.31178 53.331 8.75955C52.8839 9.2039 52.6052 9.81913 52.6052 10.4994C52.6052 11.1796 52.8839 11.7949 53.331 12.2392C53.7782 12.6835 54.3974 12.9604 55.082 12.9604C55.7665 12.9604 56.3857 12.687 56.8329 12.2392C57.2801 11.7949 57.5587 11.1796 57.5587 10.4994C57.5587 9.81913 57.2801 9.20389 56.8329 8.75955ZM49.1516 19.5198V18.8499C49.1516 17.2297 49.8189 15.7565 50.8922 14.6901C51.4632 14.1227 52.1512 13.668 52.9183 13.3673C52.7807 13.2647 52.6534 13.1553 52.533 13.0357C51.8795 12.3863 51.477 11.4908 51.477 10.5029C51.477 9.51511 51.8795 8.61618 52.533 7.97015C53.1866 7.32071 54.0878 6.92081 55.082 6.92081C56.0795 6.92081 56.9807 7.32072 57.6309 7.97015C58.2845 8.61959 58.6869 9.51511 58.6869 10.5029C58.6869 11.4942 58.2844 12.3897 57.6309 13.0357C57.5105 13.1553 57.3798 13.2681 57.2456 13.3673C58.0093 13.6681 58.6972 14.1192 59.2717 14.6901C60.345 15.7565 61.0123 17.2297 61.0123 18.8499V19.5198C61.1912 19.366 61.3666 19.2088 61.5352 19.0413C63.1863 17.4006 64.208 15.1344 64.208 12.6324C64.208 10.1303 63.1863 7.86415 61.5352 6.22346C59.884 4.58277 57.6034 3.57106 55.0854 3.57106C52.5674 3.57106 50.2868 4.58627 48.6357 6.22346C46.9845 7.86415 45.9629 10.1303 45.9629 12.6324C45.9629 15.1344 46.9845 17.4006 48.6357 19.0413C48.8008 19.2054 48.9727 19.366 49.1516 19.5198ZM59.8809 20.3436V18.8499C59.8809 17.5408 59.3409 16.3478 58.4705 15.483C57.6003 14.6183 56.3997 14.0816 55.0822 14.0816C53.7647 14.0816 52.5642 14.6182 51.6939 15.483C50.8236 16.3478 50.2835 17.5408 50.2835 18.8499V20.3436C51.6766 21.2015 53.3209 21.6972 55.0821 21.6972C56.8433 21.6972 58.4878 21.2016 59.8809 20.3436ZM41.0685 48.2213C38.6021 49.8073 35.661 50.7302 32.4997 50.7302C28.1483 50.7302 24.2062 48.9767 21.3548 46.1431C18.5033 43.3094 16.7384 39.3924 16.7384 35.0721C16.7384 30.7483 18.5031 26.8311 21.3548 23.9977C24.2064 21.1644 28.1485 19.4106 32.4997 19.4106C36.851 19.4106 40.7899 21.1641 43.6447 23.9977C46.4964 26.8313 48.261 30.7484 48.261 35.0721V35.3798L46.0079 33.0486C45.7912 32.8264 45.4369 32.8196 45.2099 33.0315C44.9863 33.2468 44.9794 33.6023 45.1927 33.8245L48.3574 37.0956C48.5741 37.3178 48.9318 37.3246 49.1554 37.1127L52.4474 33.968C52.671 33.7527 52.6779 33.3972 52.4612 33.175C52.2445 32.9494 51.8867 32.9426 51.6631 33.1579L49.3894 35.3285C49.3928 35.2191 49.3928 35.1336 49.3928 35.0687C49.3928 30.4337 47.5009 26.2361 44.4463 23.2015C41.3882 20.1628 37.1675 18.2863 32.5035 18.2863C27.8394 18.2863 23.6146 20.1662 20.5607 23.2015C17.5026 26.2402 15.6141 30.4376 15.6141 35.0687C15.6141 39.7036 17.506 43.9013 20.5607 46.9359C23.6188 49.9746 27.8394 51.8511 32.5035 51.8511C35.8884 51.8511 39.0393 50.8599 41.6847 49.1543C44.4126 47.3974 46.5968 44.8782 47.935 41.901C48.0623 41.6207 47.935 41.2892 47.6495 41.1593C47.364 41.0328 47.0337 41.1593 46.903 41.443C45.6509 44.2288 43.614 46.5806 41.0685 48.2213ZM62.1036 24.7249C62.6815 26.3622 63.1287 28.0609 63.4279 29.811C63.7203 31.5166 63.8717 33.2735 63.8717 35.0714C63.8717 37.7068 63.5449 40.2635 62.9257 42.7007C62.2893 45.2198 61.3434 47.6125 60.1325 49.8445C59.9846 50.118 60.0878 50.4564 60.363 50.6034C60.6382 50.7503 60.9787 50.6478 61.1266 50.3743C62.3822 48.0603 63.3592 45.5787 64.0196 42.9708C64.6594 40.438 65 37.7923 65 35.0682C65 33.2156 64.8418 31.3972 64.5391 29.6231C64.2295 27.8115 63.7685 26.0512 63.1665 24.3524C63.0633 24.0585 62.7434 23.9047 62.4476 24.0072C62.1587 24.1132 62.0004 24.4309 62.1036 24.7249ZM55.0827 52.6883C52.4031 52.6883 50.2325 54.8486 50.2325 57.5078C50.2325 58.5059 50.5387 59.4356 51.0615 60.2047C48.4197 62.1324 45.4614 63.6637 42.2761 64.6994C39.2008 65.7009 35.9157 66.2444 32.4996 66.2444C30.7693 66.2444 29.0838 66.1077 27.4429 65.8445C25.8606 65.5915 24.3161 65.2155 22.8197 64.7336L26.2218 62.9425C26.497 62.799 26.6036 62.4571 26.4591 62.1837C26.3147 61.9103 25.9707 61.8043 25.6955 61.9479L21.0929 64.3713C20.8177 64.5148 20.7111 64.8532 20.8556 65.1267L23.2944 69.7001C23.4389 69.9735 23.7829 70.0795 24.0581 69.9359C24.3332 69.7924 24.4399 69.4506 24.2954 69.1771L22.4963 65.8069C24.0374 66.2991 25.6301 66.6853 27.264 66.9485C28.9736 67.222 30.7211 67.3655 32.4961 67.3655C36.0288 67.3655 39.4309 66.805 42.6195 65.7659C45.9218 64.6891 48.9902 63.1031 51.7321 61.1036C51.7527 61.0865 51.7733 61.0728 51.7905 61.0558C52.654 61.8453 53.8098 62.3307 55.0791 62.3307C57.7588 62.3307 59.9327 60.1704 59.9327 57.5078C59.9362 54.8484 57.7624 52.6883 55.0827 52.6883ZM9.91724 7.80875C7.23755 7.80875 5.06703 9.96553 5.06703 12.6283C5.06703 15.291 7.23755 17.4478 9.91724 17.4478C12.5969 17.4478 14.7675 15.2875 14.7675 12.6283C14.7675 11.6302 14.4613 10.7005 13.9384 9.9314C16.5837 8.00021 19.5386 6.47231 22.7239 5.43662C25.7992 4.43515 29.0843 3.89508 32.5004 3.89508C32.5176 3.89508 32.5348 3.89508 32.552 3.89166C34.2616 3.88482 35.9781 3.97369 37.6361 4.20954C39.0912 4.41804 40.4912 4.73592 41.7915 5.20078L38.3207 7.10126C38.049 7.25166 37.9492 7.59347 38.0971 7.86349C38.2485 8.13694 38.5925 8.23606 38.8642 8.08567L43.4255 5.58702C43.7007 5.43663 43.8004 5.09481 43.6491 4.82478L41.1345 0.292377C40.9832 0.0189293 40.6426 -0.0801945 40.3674 0.0701974C40.0922 0.220589 39.9925 0.558983 40.1438 0.83243L41.936 4.06253C40.6289 3.61475 39.2323 3.30371 37.7945 3.09859C36.0883 2.85591 34.3168 2.76362 32.5452 2.77387C32.5315 2.77046 32.5143 2.77046 32.4971 2.77046C28.9643 2.77046 25.5589 3.33103 22.3736 4.3701C19.0713 5.44683 16.0029 7.02941 13.2611 9.03236C13.2404 9.04946 13.2198 9.06313 13.2026 9.08022C12.3392 8.29405 11.1865 7.80875 9.91724 7.80875ZM1.5136 39.9802C1.25905 38.3908 1.12833 36.7501 1.12833 35.0718C1.12833 32.4365 1.45512 29.8797 2.07428 27.4426C2.71066 24.9268 3.65665 22.5307 4.86748 20.2987C5.0154 20.0253 4.9122 19.6869 4.63701 19.5399C4.36182 19.3929 4.02127 19.4954 3.87335 19.7689C2.61778 22.0829 1.6374 24.5645 0.98038 27.1725C0.340566 29.7052 0 32.3509 0 35.0751C0 36.7943 0.137594 38.4897 0.402464 40.1544C0.674211 41.8531 1.07324 43.5007 1.59613 45.0901C1.69245 45.3874 2.01236 45.5481 2.30818 45.4524C2.60401 45.3567 2.76568 45.0388 2.66937 44.7448C2.16027 43.1999 1.77162 41.6072 1.5136 39.9802ZM31.936 34.7471L25.6891 38.3327C25.4208 38.4865 25.3279 38.8317 25.4827 39.0983C25.6409 39.365 25.9849 39.4572 26.2532 39.3L32.7477 35.5743C32.9369 35.482 33.0642 35.2906 33.0642 35.0684V24.3256C33.0642 24.0146 32.8097 23.7651 32.5001 23.7651C32.187 23.7651 31.9325 24.0146 31.9325 24.3256V34.7473L31.936 34.7471Z" fill="#0FCC7C"/>
</svg>
