<svg width="67" height="70" viewBox="0 0 67 70" fill="none" xmlns="http://www.w3.org/2000/svg">
<path fill-rule="evenodd" clip-rule="evenodd" d="M60.7559 10.3338L56.4595 2.86933C56.2409 2.48167 55.9238 2.15896 55.5404 1.93397C55.1523 1.71966 54.7165 1.60727 54.2734 1.60727C53.8303 1.60727 53.3945 1.71966 53.0064 1.93397C52.6231 2.15894 52.306 2.48166 52.0875 2.86933L43.4949 17.7955C43.2713 18.1797 43.1531 18.6163 43.1521 19.0612C43.1512 19.506 43.2676 19.9431 43.4896 20.3282C43.7116 20.7134 44.0312 21.0328 44.4161 21.254C44.8009 21.4753 45.2373 21.5906 45.6809 21.5881H62.8672C63.3122 21.5939 63.7507 21.4807 64.1377 21.2602C64.5246 21.0398 64.846 20.7199 65.0687 20.3336C65.2915 19.9472 65.4076 19.5084 65.4051 19.0622C65.4026 18.6159 65.2816 18.1784 65.0545 17.7946L65.0532 17.7955L60.7559 10.3338ZM53.474 8.46717C53.4814 8.25954 53.5688 8.06288 53.7179 7.91861C53.8671 7.77434 54.0662 7.69372 54.2734 7.69372C54.4806 7.69372 54.6798 7.77434 54.8289 7.91861C54.978 8.06288 55.0654 8.25954 55.0728 8.46717V14.6338C55.0654 14.8414 54.978 15.0381 54.8289 15.1823C54.6798 15.3266 54.4806 15.4072 54.2734 15.4072C54.0662 15.4072 53.8671 15.3266 53.7179 15.1823C53.5688 15.0381 53.4814 14.8414 53.474 14.6338V8.46776V8.46717ZM53.474 17.2982C53.4742 17.1396 53.5214 16.9847 53.6094 16.853C53.6975 16.7213 53.8225 16.6187 53.9687 16.5581C54.1149 16.4976 54.2757 16.4819 54.4308 16.513C54.5859 16.5441 54.7283 16.6206 54.84 16.7329C54.9518 16.8451 55.0278 16.988 55.0586 17.1435C55.0893 17.2991 55.0734 17.4603 55.0128 17.6068C54.9523 17.7533 54.8497 17.8785 54.7182 17.9665C54.5867 18.0546 54.4321 18.1016 54.2739 18.1016C54.1688 18.1016 54.0646 18.0808 53.9675 18.0404C53.8704 18 53.7821 17.9408 53.7078 17.8662C53.6335 17.7916 53.5746 17.703 53.5345 17.6056C53.4944 17.5081 53.4738 17.4037 53.474 17.2982ZM38.2131 49.257C38.3423 49.1611 38.4485 49.0374 38.524 48.8951C38.5995 48.7528 38.6424 48.5954 38.6494 48.4343V35.8646C38.6494 35.1101 37.7583 34.6236 36.9524 34.6236H20.2458C19.4401 34.6236 18.5488 35.1101 18.5488 35.8646V48.4343C18.5488 49.1889 19.4401 49.6753 20.2458 49.6753H36.9527C37.4081 49.6842 37.8529 49.5365 38.2131 49.257ZM20.5342 33.0205V32.2531C20.547 30.1169 21.4024 28.0726 22.9134 26.5666C24.4245 25.0606 26.4685 24.2153 28.5991 24.2153C30.7297 24.2153 32.7737 25.0606 34.2848 26.5666C35.7959 28.0726 36.6512 30.1169 36.664 32.2531V33.0205H36.9524C38.6396 33.0205 40.2482 34.1901 40.2482 35.8642V48.4339C40.2482 50.1086 38.6393 51.2776 36.9524 51.2776H20.2458C18.5587 51.2776 16.9501 50.1082 16.9501 48.4339V35.8646C16.9501 34.1901 18.559 33.0209 20.2458 33.0209L20.5342 33.0205ZM31.4918 33.0205V31.9937C31.4918 29.4493 28.3939 28.1043 26.5569 29.9458C26.2877 30.2142 26.0741 30.5333 25.9282 30.8848C25.7822 31.2362 25.707 31.613 25.7067 31.9937V33.0205H31.4918ZM24.1079 33.0205V31.9937C24.1046 31.4002 24.2183 30.8118 24.4425 30.2625C24.6667 29.7131 24.997 29.2137 25.4144 28.7928C25.8318 28.3719 26.328 28.0379 26.8746 27.8099C27.4212 27.582 28.0073 27.4647 28.5993 27.4647C29.1913 27.4647 29.7774 27.582 30.324 27.8099C30.8706 28.0379 31.3669 28.3719 31.7843 28.7928C32.2017 29.2137 32.532 29.7131 32.7562 30.2625C32.9804 30.8118 33.0941 31.4002 33.0907 31.9937V33.0205H35.0656V32.2531C35.0656 30.5336 34.3843 28.8845 33.1716 27.6686C31.959 26.4527 30.3142 25.7697 28.5993 25.7697C26.8843 25.7697 25.2396 26.4527 24.0269 27.6686C22.8142 28.8845 22.133 30.5336 22.133 32.2531V33.0205H24.1079ZM9.20574 15.331L4.7137 16.6289C4.54745 16.6765 4.4012 16.7772 4.29706 16.9156C4.19291 17.0539 4.13653 17.2226 4.13643 17.3959H4.13294V32.9384C4.13294 47.9341 14.0231 61.3753 28.3713 65.6645C28.5244 65.7104 28.6877 65.7091 28.84 65.6605C35.841 63.5274 41.9739 59.1965 46.3352 53.3055C50.6965 47.4145 53.0558 40.275 53.0656 32.9384V23.1911H55.6004V32.9384C55.5769 41.0683 52.884 48.9642 47.9376 55.4062C43.0952 61.7499 36.2959 66.3093 28.5993 68.3739C20.9026 66.3093 14.1033 61.7499 9.26086 55.4062C4.31458 48.9642 1.6217 41.0683 1.59828 32.9384V14.876L7.65429 13.126L9.20574 15.331ZM18.4475 14.321L28.5995 11.3876L42.9549 15.5356L42.1151 16.9939C41.7519 17.6216 41.5603 18.3341 41.5594 19.0598C41.5586 19.7854 41.7485 20.4985 42.1102 21.127C42.4719 21.7556 42.9924 22.2774 43.6194 22.6399C44.2463 23.0023 44.9575 23.1927 45.6812 23.1917H51.4671V32.939C51.4599 39.8926 49.2375 46.6621 45.124 52.2605C41.0104 57.8588 35.2208 61.9932 28.5993 64.0609C21.9777 61.9932 16.1881 57.8586 12.0746 52.2602C7.96103 46.6617 5.73872 39.8921 5.73166 32.9384V17.9953L10.1764 16.711L11.0741 17.987L10.0124 21.1244C9.97263 21.2417 9.96066 21.3668 9.97743 21.4896C9.99419 21.6124 10.0392 21.7296 10.1089 21.8319L15.2834 29.4144C15.3728 29.5653 15.5091 29.6827 15.6714 29.7485C15.8337 29.8143 16.0131 29.8248 16.182 29.7786C16.3509 29.7323 16.5 29.6318 16.6064 29.4924C16.7128 29.353 16.7707 29.1825 16.7712 29.0069V21.6979L20.3156 17.953C20.445 17.8167 20.5222 17.6389 20.5337 17.4511C20.5451 17.2632 20.4901 17.0774 20.3783 16.9262L18.4475 14.3204V14.321ZM15.815 10.7684L28.5995 7.07449L45.0842 11.8378L43.7752 14.1127L28.8179 9.79029C28.6711 9.74809 28.5154 9.74926 28.3693 9.79365L17.4342 12.9534L15.8153 10.7684H15.815ZM13.8505 10.7975C13.7712 10.6907 13.7198 10.5658 13.701 10.4339C13.6822 10.3021 13.6966 10.1677 13.7429 10.0429C13.7891 9.91812 13.8658 9.8069 13.9659 9.7194C14.066 9.6319 14.1863 9.5709 14.3159 9.54194L28.3801 5.47721C28.5268 5.43498 28.6825 5.43609 28.8286 5.48042L45.9035 10.4136L50.7078 2.07032H50.7092C51.0691 1.4412 51.5883 0.91847 52.2142 0.554951C52.8402 0.191431 53.5507 0 54.2741 0C54.9974 0 55.708 0.191431 56.3339 0.554951C56.9598 0.91847 57.479 1.4412 57.8389 2.07032H57.8402L66.4333 16.9965C66.8042 17.6208 67 18.3339 67 19.0606C67 19.7872 66.8042 20.5004 66.4333 21.1247H66.432C66.0771 21.7579 65.559 22.2838 64.9318 22.6474C64.3047 23.0109 63.5916 23.1988 62.8672 23.1912H57.1991V32.9385C57.1991 50.0275 45.6811 65.5601 28.7991 69.9744C28.6621 70.0101 28.518 70.0084 28.3818 69.9695C20.2694 67.8403 13.0969 63.0592 7.99942 56.383C2.83692 49.6613 0.0256646 41.4221 0 32.9384V14.2781C7.90629e-05 14.0907 0.0655775 13.9093 0.18513 13.7653C0.304682 13.6213 0.470744 13.5238 0.654498 13.4897L7.70141 11.4526C7.86679 11.3907 8.04797 11.3855 8.21661 11.4378C8.38525 11.4901 8.53183 11.597 8.63342 11.7418L12.6126 17.3988C12.685 17.5017 12.732 17.6203 12.7499 17.7449C12.7678 17.8695 12.7561 17.9966 12.7157 18.1158L11.6517 21.2601L15.1726 26.4196V21.381H15.1746C15.1744 21.1759 15.2531 20.9786 15.3942 20.8301L18.6987 17.3395L13.8505 10.7975Z" fill="#0FCC7C"/>
</svg>
